# Blender 3.6.1
# www.blender.org
mtllib calicube.mtl
o xyzCalibration_cube
v -39.178215 43.095173 -39.924572
v -39.178215 -36.904827 -39.924564
v -39.178215 43.095181 40.075428
v -39.178215 -36.904819 40.075436
v -19.016838 -22.181404 40.075432
v -12.567009 -22.181404 40.075432
v 10.962654 -22.181404 40.075432
v -0.965874 -2.599885 40.075432
v 18.088753 -22.181343 40.075432
v 40.821785 -36.904819 40.075436
v -18.147713 27.038097 40.075428
v -4.835838 3.365115 40.075432
v -11.558586 27.062878 40.075428
v -1.037468 8.440829 40.075432
v 10.717384 27.062878 40.075428
v 2.051765 3.182681 40.075432
v 17.225136 26.921856 40.075428
v 40.821785 43.095181 40.075428
v -13.889452 43.095177 22.366465
v -13.889452 43.095177 24.047150
v 17.270535 43.095177 24.047150
v 17.270535 43.095177 17.996675
v -13.553318 43.095177 -19.146561
v -13.553318 43.095177 -25.197056
v 40.821785 43.095173 -39.924572
v 16.531029 43.095177 -25.197056
v 16.531029 43.095177 -23.516350
v -4.712887 43.095177 17.996675
v 7.287243 43.095177 -19.146561
v 40.821785 -36.904827 -39.924564
v 40.821785 0.014416 -1.728241
v 40.821785 -22.034966 -1.966925
v 40.821785 -22.107731 4.755442
v 40.821785 -0.058350 4.994125
v 40.821785 27.377409 -17.231447
v 40.821785 27.302460 -10.307409
v 40.821785 27.036871 14.229219
v 40.821785 5.658073 1.728034
v 40.821785 26.961920 21.153261
v 17.225136 26.915522 32.469158
v 2.051765 3.176363 32.488926
v 18.088753 -22.187643 32.510040
v 10.962654 -22.187704 32.510040
v -0.965874 -2.606195 32.493740
v -12.567009 -22.187704 32.510040
v -19.016838 -22.187704 32.510040
v -4.835838 3.358797 32.488773
v -18.147713 27.031763 32.469059
v -11.558586 27.056543 32.469040
v -1.037468 8.434512 32.484547
v 10.717384 27.056543 32.469040
v 16.531029 35.095177 -23.516348
v -4.712887 35.095177 17.996677
v 16.531029 35.095177 -25.197054
v -13.553318 35.095177 -25.197054
v -13.553318 35.095177 -19.146559
v 7.287243 35.095177 -19.146559
v -13.889452 35.095177 22.366467
v -13.889452 35.095177 24.047152
v 17.270535 35.095177 24.047152
v 17.270535 35.095177 17.996677
v 33.071037 0.026348 -1.724800
v 33.106285 27.389288 -17.228025
v 33.109238 27.314331 -10.303988
v 33.081261 5.669987 1.731467
v 33.119713 27.048727 14.232635
v 33.122665 26.973772 21.156675
v 33.073906 -0.046421 4.997562
v 33.039856 -22.095751 4.758893
v 33.036987 -22.022982 -1.963472
vn -1.0000 -0.0000 -0.0000
vn -0.0000 -0.0000 1.0000
vn -0.0000 1.0000 -0.0000
vn -0.0000 -0.0000 -1.0000
vn -0.0000 -1.0000 -0.0000
vn 1.0000 -0.0000 -0.0000
vn -0.8426 0.5386 -0.0004
vn -0.8452 -0.5344 0.0004
vn -0.0000 1.0000 -0.0008
vn 0.8540 0.5202 -0.0004
vn -0.8603 0.5097 -0.0004
vn 0.8743 -0.4853 0.0004
vn 0.8716 0.4901 -0.0004
vn 0.0038 -1.0000 0.0008
vn -0.8707 -0.4919 0.0004
vn 0.8456 -0.5338 0.0004
vn -0.0217 -0.9998 0.0008
vn -0.8902 -0.0000 -0.4556
vn 0.8908 -0.0000 0.4544
vn 0.0011 0.4930 0.8701
vn -0.0015 -0.9999 -0.0108
vn -0.0011 -0.4860 -0.8740
vn -0.0004 -0.5048 0.8632
vn 0.0004 0.5133 -0.8582
vn -0.0004 0.0108 -0.9999
vn 0.0015 0.9999 0.0108
vn 0.0004 -0.0108 0.9999
vn -0.0000 0.0008 1.0000
vn 1.0000 -0.0015 -0.0004
s 0
usemtl Material.001
f 1//1 2//1 3//1
f 2//1 4//1 3//1
f 5//2 4//2 6//2
f 6//2 4//2 7//2
f 6//2 7//2 8//2
f 9//2 7//2 10//2
f 7//2 4//2 10//2
f 3//2 4//2 11//2
f 5//2 12//2 11//2
f 4//2 5//2 11//2
f 3//2 11//2 13//2
f 13//2 14//2 15//2
f 3//2 13//2 15//2
f 16//2 9//2 17//2
f 9//2 10//2 17//2
f 15//2 17//2 18//2
f 17//2 10//2 18//2
f 3//2 15//2 18//2
f 19//3 3//3 20//3
f 18//3 21//3 20//3
f 18//3 22//3 21//3
f 18//3 20//3 3//3
f 23//3 1//3 3//3
f 23//3 3//3 19//3
f 24//3 1//3 23//3
f 25//3 26//3 27//3
f 25//3 22//3 18//3
f 25//3 27//3 22//3
f 25//3 1//3 24//3
f 25//3 24//3 26//3
f 27//3 28//3 22//3
f 19//3 29//3 23//3
f 25//4 30//4 2//4
f 25//4 2//4 1//4
f 4//5 2//5 30//5
f 10//5 4//5 30//5
f 31//6 32//6 30//6
f 10//6 32//6 33//6
f 10//6 30//6 32//6
f 34//6 10//6 33//6
f 35//6 30//6 25//6
f 35//6 31//6 30//6
f 36//6 35//6 25//6
f 37//6 38//6 36//6
f 39//6 10//6 34//6
f 18//6 39//6 37//6
f 18//6 37//6 36//6
f 18//6 36//6 25//6
f 18//6 10//6 39//6
f 17//7 40//7 16//7
f 16//7 40//7 41//7
f 16//8 41//8 9//8
f 9//8 41//8 42//8
f 7//9 9//9 42//9
f 7//9 42//9 43//9
f 8//10 7//10 44//10
f 7//10 43//10 44//10
f 8//11 44//11 6//11
f 6//11 44//11 45//11
f 5//9 6//9 46//9
f 6//9 45//9 46//9
f 12//12 5//12 47//12
f 5//12 46//12 47//12
f 11//13 12//13 48//13
f 12//13 47//13 48//13
f 13//14 11//14 49//14
f 11//14 48//14 49//14
f 13//15 49//15 14//15
f 14//15 49//15 50//15
f 15//16 14//16 51//16
f 14//16 50//16 51//16
f 17//17 15//17 51//17
f 17//17 51//17 40//17
f 27//18 52//18 28//18
f 28//18 52//18 53//18
f 27//1 26//1 54//1
f 27//1 54//1 52//1
f 24//2 55//2 26//2
f 26//2 55//2 54//2
f 23//6 56//6 55//6
f 24//6 23//6 55//6
f 29//4 57//4 56//4
f 23//4 29//4 56//4
f 19//19 58//19 29//19
f 29//19 58//19 57//19
f 19//6 20//6 59//6
f 19//6 59//6 58//6
f 21//4 60//4 59//4
f 20//4 21//4 59//4
f 22//1 61//1 60//1
f 21//1 22//1 60//1
f 28//2 53//2 22//2
f 22//2 53//2 61//2
f 31//20 35//20 62//20
f 35//20 63//20 62//20
f 35//21 36//21 63//21
f 36//21 64//21 63//21
f 38//22 65//22 36//22
f 36//22 65//22 64//22
f 38//23 37//23 65//23
f 37//23 66//23 65//23
f 37//21 39//21 66//21
f 39//21 67//21 66//21
f 34//24 68//24 39//24
f 39//24 68//24 67//24
f 33//25 69//25 34//25
f 34//25 69//25 68//25
f 33//26 32//26 70//26
f 33//26 70//26 69//26
f 32//27 31//27 70//27
f 31//27 62//27 70//27
f 43//28 42//28 41//28
f 44//28 43//28 41//28
f 45//28 44//28 47//28
f 46//28 45//28 47//28
f 44//28 41//28 47//28
f 47//28 41//28 50//28
f 41//28 40//28 51//28
f 50//28 41//28 51//28
f 47//28 50//28 49//28
f 47//28 49//28 48//28
f 53//3 58//3 59//3
f 60//3 53//3 59//3
f 61//3 53//3 60//3
f 57//3 55//3 56//3
f 54//3 55//3 57//3
f 54//3 57//3 52//3
f 57//3 58//3 53//3
f 57//3 53//3 52//3
f 62//29 69//29 70//29
f 62//29 68//29 69//29
f 65//29 68//29 62//29
f 66//29 67//29 68//29
f 66//29 68//29 65//29
f 64//29 65//29 62//29
f 63//29 64//29 62//29
