# Blender 3.6.1
# www.blender.org
mtllib chicken.mtl
o Chicken
v -18.000000 -17.987301 -30.523314
v 18.000000 -17.987301 -30.523314
v -18.000000 18.012699 -30.523317
v 18.000000 18.012699 -30.523317
v -18.000000 -17.987297 17.476685
v 18.000000 -17.987297 17.476685
v -18.000000 18.012703 17.476685
v 18.000000 18.012703 17.476685
v 17.999998 -5.987299 -24.523317
v 23.999998 -5.987299 -24.523317
v 17.999998 18.012699 -24.523319
v 23.999998 18.012699 -24.523319
v 17.999998 -5.987297 11.476681
v 23.999998 -5.987297 11.476681
v 17.999998 18.012703 11.476681
v 23.999998 18.012703 11.476681
v -6.000002 6.012713 29.476677
v 5.999998 6.012713 29.476677
v -6.000002 18.012711 29.476677
v 5.999998 18.012711 29.476677
v -6.000002 6.012713 35.476677
v 5.999998 6.012713 35.476677
v -6.000002 18.012712 35.476677
v 5.999998 18.012712 35.476677
v -12.000002 18.012711 29.476677
v 11.999998 18.012711 29.476677
v -12.000002 30.012711 29.476673
v 11.999998 30.012711 29.476673
v -12.000002 18.012712 41.476677
v 11.999998 18.012712 41.476677
v -12.000002 30.012712 41.476677
v 11.999998 30.012712 41.476677
v -12.000002 6.012709 11.476677
v 11.999998 6.012709 11.476677
v -12.000002 42.012711 11.476673
v 11.999998 42.012711 11.476673
v -12.000002 6.012710 29.476677
v 11.999998 6.012710 29.476677
v -12.000002 42.012711 29.476673
v 11.999998 42.012711 29.476673
v -18.000002 -5.987299 -24.523317
v -24.000000 -5.987299 -24.523317
v -18.000002 18.012699 -24.523319
v -24.000000 18.012699 -24.523319
v -18.000002 -5.987297 11.476681
v -24.000000 -5.987297 11.476681
v -18.000002 18.012703 11.476681
v -24.000000 18.012703 11.476681
v -6.000004 -47.987301 -6.523308
v -12.000003 -47.987301 -6.523308
v -6.000004 -17.987299 -6.523310
v -12.000003 -17.987299 -6.523310
v -6.000004 -47.987293 5.476696
v -12.000003 -47.987293 5.476696
v -18.000004 -47.987301 -6.523308
v -18.000004 -47.987289 5.476696
v -0.000002 -47.987301 -6.523308
v -0.000002 -47.987289 5.476696
v -6.000004 -47.987289 11.476696
v -12.000003 -47.987289 11.476696
v 5.999999 -47.987301 -6.523308
v 11.999999 -47.987301 -6.523308
v 5.999999 -17.987299 -6.523310
v 11.999999 -17.987299 -6.523310
v 5.999999 -47.987293 5.476696
v 11.999999 -47.987293 5.476696
v 17.999996 -47.987301 -6.523308
v 17.999996 -47.987289 5.476696
v -0.000002 -47.987301 -6.523308
v -0.000002 -47.987289 5.476696
v 5.999999 -47.987289 11.476696
v 11.999999 -47.987289 11.476696
vn -0.0000 -0.0000 -1.0000
vn -0.0000 -0.0000 1.0000
vn -0.0000 -1.0000 -0.0000
vn 1.0000 -0.0000 -0.0000
vn -0.0000 1.0000 -0.0000
vn -1.0000 -0.0000 -0.0000
vt 0.187500 0.765672
vt 0.280953 0.859340
vt 0.280953 0.765672
vt 0.093937 0.859340
vt 0.093937 0.765672
vt 0.375000 0.640665
vt 0.280953 0.640665
vt 0.093929 0.640665
vt 0.000000 0.765672
vt 0.000000 0.640665
vt 0.187500 0.640665
vt 0.093929 0.765672
vt 0.093929 0.640665
vt 0.500000 0.700000
vt 0.468407 0.640881
vt 0.500000 0.640881
vt 0.375273 0.640881
vt 0.359648 0.700000
vt 0.359648 0.640881
vt 0.487522 0.703139
vt 0.500000 0.796765
vt 0.500000 0.703139
vt 0.468407 0.700000
vt 0.468407 0.796765
vt 0.468407 0.703139
vt 0.593548 0.700000
vt 0.312500 0.875000
vt 0.250000 0.906269
vt 0.250000 0.875000
vt 0.312500 0.937500
vt 0.250000 0.937500
vt 0.343515 0.906269
vt 0.343515 0.875000
vt 0.218678 0.875000
vt 0.218678 0.906269
vt 0.400000 0.968762
vt 0.343781 0.937500
vt 0.400000 0.937500
vt 0.250000 0.968762
vt 0.375000 1.000000
vt 0.312500 0.968762
vt 0.312500 1.000000
vt 0.343781 0.968762
vt 0.250000 1.000000
vt 0.218839 0.937500
vt 0.218839 0.968762
vt 0.218563 0.952875
vt 0.156437 0.859443
vt 0.218563 0.859443
vt 0.109429 0.859443
vt 0.046929 0.952875
vt 0.046929 0.859443
vt 0.976122 -0.437364
vt 0.691551 -0.223935
vt 0.691551 -0.437364
vt 0.156437 0.952875
vt 0.109429 0.859443
vt 0.156437 0.859443
vt 0.049928 1.000000
vt 0.107083 0.952875
vt 0.107039 1.000000
vt 0.003384 0.859443
vt 0.003384 0.952875
vt 0.575000 0.878294
vt 0.565600 0.950000
vt 0.575000 0.950000
vt 0.531222 0.984389
vt 0.515611 0.957043
vt 0.531222 0.957043
vt 0.546833 0.953167
vt 0.531222 0.953167
vt 0.503294 0.980901
vt 0.515611 0.956849
vt 0.515611 0.980901
vt 0.531222 1.000000
vt 0.515611 0.984389
vt 0.575000 0.879069
vt 0.565407 0.950000
vt 0.565407 0.879069
vt 0.515611 0.957430
vt 0.531222 0.957430
vt 0.515611 0.955880
vt 0.503488 0.981095
vt 0.515611 0.981095
vt 0.187500 0.859340
vt 0.375000 0.765672
vt 0.375273 0.700000
vt 0.487500 0.796765
vt 0.593548 0.640881
vt 0.312500 0.906269
vt 0.375000 0.968762
vt 0.156437 0.952875
vt 0.109429 0.952875
vt 0.976122 -0.223935
vt 0.109429 0.952875
vt 0.050005 0.952875
vt 0.565600 0.878294
vt 0.546833 0.984389
vt 0.503294 0.956849
vt 0.515611 1.000000
vt 0.503488 0.955880
s 1
usemtl 02_-_Default
f 3/1/1 2/2/1 1/3/1
f 6/1/2 7/4/2 5/5/2
f 2/6/3 5/3/3 1/7/3
f 4/8/4 6/9/4 2/10/4
f 3/11/5 8/12/5 4/13/5
f 1/7/6 7/1/6 3/11/6
f 11/14/1 10/15/1 9/16/1
f 14/17/2 15/18/2 13/19/2
f 10/20/3 13/21/3 9/22/3
f 12/23/4 14/17/4 10/15/4
f 11/20/5 16/24/5 12/25/5
f 9/16/6 15/26/6 11/14/6
f 22/27/2 23/28/2 21/29/2
f 18/30/3 21/28/3 17/31/3
f 20/32/4 22/27/4 18/33/4
f 17/34/6 23/28/6 19/35/6
f 27/36/1 26/37/1 25/38/1
f 30/30/2 31/39/2 29/31/2
f 26/40/3 29/41/3 25/42/3
f 28/43/4 30/30/4 26/37/4
f 27/44/5 32/41/5 28/42/5
f 25/45/6 31/39/6 27/46/6
f 35/47/1 34/48/1 33/49/1
f 38/50/2 39/51/2 37/52/2
f 34/53/3 37/54/3 33/55/3
f 36/56/4 38/57/4 34/58/4
f 35/59/5 40/60/5 36/61/5
f 33/62/6 39/51/6 35/63/6
f 42/15/1 43/14/1 41/16/1
f 47/18/2 46/17/2 45/19/2
f 45/21/3 42/20/3 41/22/3
f 46/17/6 44/23/6 42/15/6
f 48/24/5 43/20/5 44/25/5
f 47/26/4 41/16/4 43/14/4
f 50/64/2 51/65/2 52/66/2
f 54/67/5 49/68/5 50/69/5
f 55/70/5 54/67/5 50/71/5
f 58/72/5 49/73/5 53/74/5
f 60/75/5 53/76/5 54/67/5
f 62/77/2 63/78/2 61/79/2
f 61/80/5 66/67/5 62/81/5
f 66/67/5 67/70/5 62/71/5
f 61/82/5 70/83/5 65/84/5
f 65/76/5 72/75/5 66/67/5
f 3/1/1 4/85/1 2/2/1
f 6/1/2 8/85/2 7/4/2
f 2/6/3 6/86/3 5/3/3
f 4/8/4 8/12/4 6/9/4
f 3/11/5 7/1/5 8/12/5
f 1/7/6 5/3/6 7/1/6
f 11/14/1 12/23/1 10/15/1
f 14/17/2 16/87/2 15/18/2
f 10/20/3 14/88/3 13/21/3
f 12/23/4 16/87/4 14/17/4
f 11/20/5 15/88/5 16/24/5
f 9/16/6 13/89/6 15/26/6
f 22/27/2 24/90/2 23/28/2
f 18/30/3 22/90/3 21/28/3
f 20/32/4 24/90/4 22/27/4
f 17/34/6 21/29/6 23/28/6
f 27/36/1 28/43/1 26/37/1
f 30/30/2 32/41/2 31/39/2
f 26/40/3 30/91/3 29/41/3
f 28/43/4 32/41/4 30/30/4
f 27/44/5 31/39/5 32/41/5
f 25/45/6 29/31/6 31/39/6
f 35/47/1 36/92/1 34/48/1
f 38/50/2 40/93/2 39/51/2
f 34/53/3 38/94/3 37/54/3
f 36/56/4 40/95/4 38/57/4
f 35/59/5 39/96/5 40/60/5
f 33/62/6 37/52/6 39/51/6
f 42/15/1 44/23/1 43/14/1
f 47/18/2 48/87/2 46/17/2
f 45/21/3 46/88/3 42/20/3
f 46/17/6 48/87/6 44/23/6
f 48/24/5 47/88/5 43/20/5
f 47/26/4 45/89/4 41/16/4
f 50/64/2 49/97/2 51/65/2
f 54/67/5 53/76/5 49/68/5
f 55/70/5 56/98/5 54/67/5
f 58/72/5 57/99/5 49/73/5
f 60/75/5 59/100/5 53/76/5
f 62/77/2 64/66/2 63/78/2
f 61/80/5 65/76/5 66/67/5
f 66/67/5 68/98/5 67/70/5
f 61/82/5 69/101/5 70/83/5
f 65/76/5 71/100/5 72/75/5
