# Blender 3.6.1
# www.blender.org
mtllib lowpoly.mtl
o Icosphere
v -11.762050 -0.432103 -36.200352
v 9.734550 50.355606 50.904449
v -29.205799 52.654846 -39.849457
v 22.045500 50.355495 -46.904404
v 51.421101 50.355499 6.472246
v -8.908300 87.640999 -6.472207
v 8.908300 -18.431749 6.472202
v -0.180900 8.415004 44.614552
v 42.375050 8.415151 13.958750
v -42.512699 1.037100 -0.000000
v 26.370399 8.415097 -35.987400
v -44.490700 52.440804 26.046547
v -52.194450 31.925150 -0.000002
v 16.945099 82.487198 12.311294
vn -0.3185 -0.9188 -0.2333
vn -0.7364 -0.2842 -0.6140
vn 0.7288 -0.0351 0.6838
vn -0.4176 -0.0374 0.9079
vn -0.1405 -0.1138 -0.9835
vn 0.8755 -0.0351 -0.4819
vn 0.6092 0.5498 0.5715
vn -0.2371 0.7776 0.5823
vn -0.7690 0.6144 -0.1764
vn -0.0650 0.7083 -0.7029
vn 0.6110 0.7167 -0.3363
vn 0.4477 0.8015 -0.3964
vn -0.2727 0.7638 0.5850
vn -0.8170 0.5452 -0.1877
vn 0.0623 -0.2454 -0.9674
vn -0.7795 -0.2443 -0.5768
vn -0.8474 -0.2656 0.4598
vn -0.6444 -0.3652 0.6718
vn 0.5657 -0.2515 0.7853
vn 0.9217 -0.2515 -0.2953
vn 0.2029 -0.8632 -0.4624
vn -0.3631 -0.8005 0.4769
vn 0.6399 -0.7406 -0.2051
vn 0.4227 -0.6906 0.5868
vt 0.727273 0.000000
vt 0.805311 0.137153
vt 0.659399 0.117562
vt 0.681408 0.288606
vt 0.318798 0.157461
vt 0.341334 0.274305
vt 0.159516 0.274305
vt 0.136980 0.157461
vt 0.014940 0.289045
vt 0.523152 0.274305
vt 0.500617 0.157461
vt 0.272728 0.393651
vt 0.067460 0.431766
vt 0.893102 0.289045
vt 0.818182 0.393651
vt 0.648662 0.412450
vt 0.409092 0.393651
vt 0.477581 0.432483
vt 0.136365 0.393651
vt 0.818182 0.236191
vt 0.863935 0.116845
vt 1.000000 0.157461
vt 0.522006 0.040616
vt 0.613329 0.117562
vt 0.932126 0.039899
vt 0.363637 0.078731
vt 0.194117 0.059932
s 0
usemtl Material.003
f 7/1/1 10/2/1 1/3/1
f 1/3/2 10/2/2 3/4/2
f 9/5/3 5/6/3 2/7/3
f 8/8/4 2/7/4 12/9/4
f 1/3/5 3/4/5 4/10/5
f 11/11/6 4/10/6 5/6/6
f 2/7/7 5/6/7 14/12/7
f 12/9/8 2/7/8 6/13/8
f 3/4/9 12/14/9 6/15/9
f 4/10/10 3/4/10 6/16/10
f 5/6/11 4/10/11 14/17/11
f 14/17/12 4/10/12 6/18/12
f 6/13/13 2/7/13 14/19/13
f 13/20/14 12/14/14 3/4/14
f 11/11/15 1/3/15 4/10/15
f 3/4/16 10/2/16 13/20/16
f 13/20/17 10/21/17 12/14/17
f 10/21/18 8/22/18 12/14/18
f 8/8/19 9/5/19 2/7/19
f 9/5/20 11/11/20 5/6/20
f 7/23/21 1/24/21 11/11/21
f 7/25/22 8/22/22 10/21/22
f 9/5/23 7/26/23 11/11/23
f 7/27/24 9/5/24 8/8/24
