# Blender 3.6.1
# www.blender.org
mtllib rocket.mtl
o rocket
v 3.317172 -1.867528 -27.950630
v -1.870514 -6.188958 -22.292793
v -15.896820 -0.423752 -34.863426
v -5.991910 1.742195 -27.002312
v -4.287050 -1.569982 -38.039368
v -4.390760 -1.274485 -38.039368
v 1.203440 1.017985 -38.039368
v -0.287009 -3.286633 -38.039368
v -0.453104 -3.452068 -38.039368
v -3.671616 -2.036826 -38.039368
v -0.730320 -3.443180 -38.039368
v -2.388609 2.691180 -38.039368
v -3.035541 2.150540 -38.039368
v -2.181903 2.639388 -38.039368
v 1.430229 0.569463 -38.039368
v 1.261190 0.903771 -38.039368
v -1.069025 -4.781982 -38.039368
v -4.100852 -1.767366 -38.039368
v -1.151970 -5.109838 -38.039368
v -2.370303 5.682181 -38.039368
v -2.384061 3.434383 -38.039368
v -9.224741 0.622510 -38.039368
v -1.175064 6.674370 -38.039368
v -0.498626 -4.178123 -38.039368
v -10.170749 0.391436 -38.039368
v -12.498364 0.117507 -38.039368
v -0.472317 8.389172 -38.039368
v -9.536917 -1.397118 -38.039368
v -10.037248 -1.337589 -38.039368
v -0.341114 -9.029372 -38.039368
v -5.556670 -0.439175 -38.039368
v 3.033002 0.463576 -38.039368
v -7.072937 -1.332792 -38.039368
v 2.204613 -0.077187 -38.039368
v -10.051212 0.420425 -38.039368
v -1.936279 -11.398438 -38.039368
v -1.834713 -11.838870 -38.039368
v -2.389436 -9.433368 -38.039368
v -1.729869 -7.885165 -38.039368
v 6.947410 0.190262 -38.039368
v 7.506529 0.567590 -38.039368
v 7.425393 0.591676 -38.039368
v 9.713034 -0.087445 -38.039368
v -2.132581 6.211653 -38.039368
v -1.779621 6.997792 -38.039368
v -2.187602 9.003548 -38.039368
v -2.247094 8.510702 -38.039368
v -1.947517 10.992481 -38.039368
v -10.263263 -1.311812 -38.039368
v -12.277571 -1.082076 -38.039368
v -0.935140 -7.841300 -38.039368
v -1.684823 -9.875956 -38.039368
v -1.647691 -9.389691 -38.039368
v 7.262566 -0.275422 -38.039368
v 7.747149 -0.238249 -38.039368
v 6.352407 -1.409166 -38.039368
v -2.341684 7.764056 -38.039368
v -2.353547 7.670419 -38.039368
v -2.122569 7.399718 -38.039368
v -0.545208 -9.085656 -38.039368
v -2.099056 -9.044786 -38.039368
v 7.044481 0.271783 -38.039368
v -0.531004 -8.268040 -38.039368
v -2.366687 -9.402925 -38.039368
v 6.705027 -1.297514 -38.039368
v 6.635296 -1.319593 -38.039368
v -0.490082 8.326794 -38.039368
v -2.092528 -8.388308 -34.111557
v -1.496819 -14.823752 -34.863426
v -1.648829 2.404636 -38.039368
v -0.062916 -5.307010 -27.612160
v -7.342183 -2.540761 5.148483
v -0.951063 5.380943 -20.541298
v 3.829324 -4.008821 -8.388138
v -1.496819 -0.423746 46.436577
v 1.802483 0.870085 28.252007
v -5.086332 -1.289605 -38.039368
v -4.250817 -1.673223 -38.039368
v -9.499014 -1.401628 -38.039368
v 7.450315 0.633111 -37.785423
v 6.397877 -1.366723 -36.682327
v -10.169709 0.174155 -33.153122
v 6.549349 0.208290 -33.676094
v -2.549359 2.556842 -38.039368
v -2.153063 8.333521 -33.990166
v -0.680697 -7.967897 -36.895950
v -2.523228 4.755949 -26.386963
v -3.960489 -6.285308 -1.676956
v -9.188084 -1.306645 -36.324165
v -0.788728 8.131119 -34.176392
v 7.396901 -0.995887 -34.044914
v 0.225850 -2.775811 -38.039368
v -10.349068 -0.978801 -33.858650
v 2.328009 -2.923495 20.938766
v -0.748819 10.486992 -38.039368
v 12.903181 -0.423752 -34.863426
v -4.381839 -4.402481 19.405807
v 2.356457 3.310457 -23.812943
v -7.282089 -0.624370 -21.084892
v 4.085048 0.312267 -22.504898
v -0.446356 -8.357423 -38.039368
v -2.043247 2.578327 -38.039368
v -10.463882 0.356938 -38.039368
v -6.170203 -3.668307 -21.362259
v 0.785705 3.965099 16.700241
v 1.462807 0.115202 -38.039368
v -0.639187 -6.419999 -38.039368
v -7.023227 2.213980 5.148483
v 4.683352 0.513321 -0.332962
v -4.481335 -1.157290 31.230034
v 1.842263 0.542242 -38.039368
v -4.052444 2.633466 25.273979
v -0.970231 -4.340573 25.361870
v 0.344500 -6.597414 -5.814407
v -9.235431 0.618263 -38.039368
v -4.338449 -0.791776 -38.039368
v -1.676035 4.666690 -38.039368
v -1.098676 7.069430 -38.039368
v -2.375219 7.239733 -36.895950
v -1.496819 13.976249 -34.863426
v 4.510100 -0.675118 -38.039368
v -0.917387 -9.266323 -33.993073
v -2.466113 -9.424451 -37.363091
v -3.521080 5.408753 -0.332962
v -0.469657 8.368992 -38.039368
vn 0.9991 0.0210 0.0360
vn 0.8928 -0.3701 -0.2567
vn 0.7767 -0.3760 -0.5053
vn 0.9991 0.0210 0.0361
vn 0.9600 -0.2734 0.0604
vn -0.9969 -0.0131 0.0772
vn -0.2260 0.9625 -0.1500
vn -0.2237 -0.9447 -0.2398
vn 0.2308 -0.9676 -0.1022
vn -0.0407 -0.8015 -0.5966
vn 0.2877 -0.9088 -0.3022
vn -0.1749 -0.9821 -0.0704
vn -0.0407 -0.8015 -0.5967
vn 0.8317 -0.4997 -0.2420
vn 0.2308 -0.9676 -0.1023
vn 0.6661 -0.6553 -0.3562
vn -0.9954 -0.0942 0.0174
vn -0.8935 0.4084 -0.1868
vn -0.3535 0.2642 -0.8973
vn -0.9946 0.1038 0.0027
vn -0.8935 0.4084 -0.1869
vn -0.9954 -0.0942 0.0175
vn -0.9507 -0.2173 -0.2213
vn 0.9966 -0.0532 -0.0632
vn 0.9632 0.2402 -0.1207
vn 0.1805 0.1710 -0.9686
vn 0.9966 -0.0532 -0.0631
vn 0.7377 0.0432 -0.6738
vn 0.0694 0.9974 0.0201
vn -0.6360 0.7679 -0.0763
vn -0.6284 0.7483 -0.2123
vn 0.0999 0.9950 0.0050
vn 0.0694 0.9974 0.0200
vn 0.0429 0.8970 -0.4399
vn -0.9946 0.1038 0.0028
vn -0.8892 0.2140 -0.4043
vn 0.9647 -0.2590 0.0472
vn 0.2596 -0.9413 -0.2159
vn 0.9932 0.0017 0.1160
vn 0.9647 -0.2590 0.0473
vn 0.4500 -0.6489 -0.6135
vn -0.9963 0.0415 -0.0751
vn -0.1780 -0.1519 -0.9722
vn -0.5895 0.0050 -0.8077
vn -0.9963 0.0415 -0.0750
vn -0.8291 -0.4986 -0.2530
vn -0.9309 0.1165 -0.3462
vn -0.9725 0.1232 -0.1976
vn -0.9921 0.1238 0.0185
vn -0.3526 0.9188 0.1775
vn 0.9468 0.2358 -0.2192
vn -0.9475 0.2549 -0.1931
vn -0.1749 -0.9821 -0.0705
vn -0.2452 -0.9189 -0.3089
vn 0.0713 -0.9295 -0.3619
vn 0.2164 -0.8962 -0.3872
vn 0.9029 -0.3453 0.2560
vn 0.2165 -0.8962 -0.3872
vn 0.9760 -0.0902 -0.1982
vn 0.9376 -0.0716 -0.3402
vn -0.4798 -0.8625 0.1610
vn 0.9966 -0.0533 -0.0632
vn 0.9844 -0.0672 -0.1627
vn -0.1169 -0.9912 0.0624
vn -0.1063 -0.9322 -0.3459
vn -0.9969 -0.0132 0.0771
vn -0.2238 -0.9447 -0.2398
vn -0.1157 -0.9786 -0.1701
vn -0.0107 -0.9988 0.0483
vn 0.0173 -0.6626 -0.7488
vn 0.0220 -0.9933 -0.1134
vn -0.9475 0.2549 -0.1930
vn -0.8343 0.1007 -0.5421
vn -0.9963 0.0414 -0.0750
vn -0.3619 0.1625 -0.9179
vn -0.9976 0.0119 -0.0679
vn 0.0675 0.2272 -0.9715
vn 0.0674 0.2272 -0.9715
vn 0.0665 0.9953 -0.0710
vn -0.9222 0.1964 -0.3331
vn -0.9353 -0.2157 -0.2807
vn -0.4798 -0.8624 0.1611
vn 0.9760 -0.0901 -0.1982
vn -0.2766 0.9564 0.0936
vn -0.2233 0.9134 -0.3403
vn -0.2086 0.8603 -0.4651
vn -0.1364 0.8867 -0.4417
vn -0.2445 -0.9426 -0.2274
vn 0.7103 -0.7014 -0.0588
vn 0.7103 -0.7015 -0.0587
vn 0.6607 -0.4844 -0.5735
vn -0.9750 -0.2213 0.0219
vn 0.0220 -0.9933 -0.1133
vn 0.0217 -0.9995 -0.0220
vn -0.9750 -0.2213 0.0218
vn -0.8633 -0.4858 -0.1369
vn 0.8215 0.5690 0.0367
vn 0.0659 0.9968 -0.0462
vn 0.8215 0.5690 0.0368
vn 0.8394 0.5255 -0.1389
vn -0.6486 0.7581 -0.0687
vn 0.2654 0.9170 -0.2977
vn 0.0185 0.9691 -0.2460
vn -0.6299 0.6132 -0.4766
vn -0.0416 -0.3498 -0.9359
vn -0.1168 -0.9912 0.0624
vn 0.9054 0.1193 -0.4074
vn 0.9054 0.1194 -0.4074
vn -0.1043 0.8860 -0.4518
vn -0.9969 -0.0132 0.0772
vn -0.1365 0.8867 -0.4417
vn 0.7391 -0.6707 -0.0616
vn 0.9909 -0.0621 -0.1196
vn 0.7391 -0.6708 -0.0616
vn 0.9678 -0.2297 -0.1030
vn 0.9740 -0.2170 -0.0654
vn 0.5766 0.8170 0.0063
vn 0.9659 -0.2410 -0.0943
vn 0.9740 -0.2169 -0.0654
vn 0.9825 -0.1728 -0.0699
vn -0.8236 0.5671 -0.0064
vn 0.0186 0.9691 -0.2460
vn -0.2234 0.9134 -0.3403
vn -0.6485 0.7581 -0.0687
vn -0.9963 0.0061 -0.0852
vn -0.8236 0.5671 -0.0063
vn -0.9808 0.1848 -0.0623
vn -0.9464 -0.2806 -0.1601
vn -0.9613 0.2432 -0.1294
vn -0.4637 -0.8841 -0.0583
vn -0.9464 -0.2806 -0.1602
vn -0.9222 0.1964 -0.3332
vn -0.5201 -0.8285 -0.2076
vn -0.4653 -0.8144 -0.3468
vn -0.7430 -0.6652 -0.0742
vn -0.7429 -0.6652 -0.0741
vn -0.7173 -0.6766 -0.1661
vn -0.6485 0.7581 -0.0686
vn -0.7430 0.6319 -0.2206
vn 0.6520 0.7564 -0.0527
vn 0.8816 0.4457 -0.1555
vn 0.4469 0.8664 -0.2226
vn 0.3672 0.8023 -0.4706
vn 0.3930 0.8924 -0.2220
vn 0.9825 -0.1728 -0.0698
vn -0.6322 0.7564 -0.1679
vn -0.7430 0.6319 -0.2207
vn -0.9808 0.1847 -0.0623
vn -0.6321 0.7564 -0.1679
vn 0.6882 -0.5246 -0.5012
vn 0.6606 -0.4844 -0.5735
vn 0.6955 -0.6983 -0.1694
vn 0.6882 -0.5245 -0.5012
vn 0.7103 -0.7015 -0.0588
vn 0.4469 0.8664 -0.2227
vn -0.7429 -0.6652 -0.0742
vn -0.8633 -0.4858 -0.1368
vn -0.9325 -0.3273 -0.1530
vn -0.7173 -0.6767 -0.1662
vn -0.4799 -0.8625 0.1610
vn 0.9030 -0.3452 0.2560
vn -0.9042 0.4254 0.0384
vn -0.9405 -0.3371 0.0420
vn 0.9717 0.2340 0.0325
vn 0.4318 0.8993 0.0699
vn -0.3997 -0.9163 0.0233
vn -0.3856 0.9225 0.0197
vn 0.5765 0.8170 0.0063
vn -0.3856 0.9225 0.0198
vn -0.9042 0.4254 0.0385
vn -0.9405 -0.3371 0.0421
vn -0.7429 -0.6653 -0.0741
vn 0.9717 0.2340 0.0326
vn 0.3432 -0.9388 0.0305
vn 0.8266 -0.5628 -0.0064
vn 0.3432 -0.9388 0.0304
vn 0.8266 -0.5627 -0.0064
vn -0.6486 0.7581 -0.0686
vn -0.3997 -0.9164 0.0233
vn -0.7430 -0.6652 -0.0741
vn 0.8215 0.5691 0.0368
vn -0.3526 0.9188 0.1776
vn -0.3525 0.9188 0.1776
vn 0.2310 -0.9677 -0.1011
vn 0.9029 -0.3453 0.2561
vn 0.8314 -0.5454 0.1061
vn 0.0586 -0.9901 0.1278
vn -0.5907 -0.7986 0.1151
vn 0.0586 -0.9901 0.1279
vn -0.4947 0.8581 0.1374
vn -0.9621 -0.2171 0.1648
vn -0.9621 -0.2171 0.1649
vn 0.9472 0.2927 0.1310
vn -0.3856 0.9224 0.0198
vn 0.8314 -0.5455 0.1061
vn 0.5251 0.4686 0.7104
vn 0.5251 0.4685 0.7105
vn 0.5252 0.4686 0.7104
vn 0.0585 -0.9901 0.1278
vn -0.9464 -0.2805 -0.1601
vn 0.1806 0.1710 -0.9686
vn 0.9632 0.2403 -0.1207
vn 0.2595 -0.9413 -0.2159
vn 0.9932 0.0017 0.1161
vn 0.9909 -0.0622 -0.1196
vn 0.4501 -0.6489 -0.6135
vn 0.9376 -0.0717 -0.3402
vn -0.9353 -0.2156 -0.2806
vn -0.9507 -0.2173 -0.2212
vn -0.8892 0.2141 -0.4043
vn -0.9222 0.1963 -0.3332
vn -0.9353 -0.2157 -0.2806
vn 0.9678 -0.2298 -0.1030
vn 0.6956 -0.6982 -0.1693
vn 0.6955 -0.6983 -0.1693
vn 0.0428 0.8970 -0.4399
vn 0.8318 -0.4996 -0.2420
vn 0.2878 -0.9087 -0.3023
vn 0.0714 -0.9295 -0.3619
vn 0.0664 0.9953 -0.0710
vn -0.2444 -0.9426 -0.2274
vn -0.6285 0.7483 -0.2123
vn 0.6661 -0.6554 -0.3562
vn 0.6660 -0.6554 -0.3562
vn 0.0430 0.8970 -0.4399
vn -0.2453 -0.9189 -0.3089
vn 0.8394 0.5254 -0.1389
vn 0.3930 0.8923 -0.2220
vn 0.8815 0.4457 -0.1555
vn 0.8815 0.4458 -0.1555
vn -0.4654 -0.8144 -0.3468
vn -0.3619 0.1625 -0.9180
vn 0.7768 -0.3759 -0.5053
vn 0.9468 0.2357 -0.2192
vn -0.9475 0.2550 -0.1930
vn -0.9309 0.1166 -0.3462
vn -0.9309 0.1164 -0.3462
vn 0.9825 -0.1727 -0.0699
vn 0.9659 -0.2411 -0.0943
vn 0.8928 -0.3700 -0.2567
vn -0.9725 0.1231 -0.1976
vn -0.9976 0.0120 -0.0679
vn -0.9963 0.0060 -0.0852
vn -0.9976 0.0118 -0.0679
vn -0.7430 0.6318 -0.2207
vn -0.6321 0.7565 -0.1679
vn -0.6299 0.6133 -0.4766
vn 0.3671 0.8023 -0.4706
vn -0.9325 -0.3272 -0.1530
vn -0.1063 -0.9323 -0.3458
vn -0.1043 0.8860 -0.4517
vn -0.1364 0.8868 -0.4416
vn -0.1064 -0.9323 -0.3458
vn -0.2087 0.8603 -0.4651
vn -0.1064 -0.9322 -0.3458
vn -0.2086 0.8604 -0.4651
vn 0.0174 -0.6626 -0.7488
vn 0.0219 -0.9933 -0.1134
vn 0.2653 0.9170 -0.2978
vn 0.2655 0.9170 -0.2978
vn -0.8633 -0.4859 -0.1368
vn -0.5200 -0.8285 -0.2076
vn -0.6300 0.6132 -0.4766
s 0
f 90//1 118//2 67//3
f 90//4 67//3 125//5
f 3//6 26//7 50//8
f 91//9 56//10 66//11
f 91//9 81//12 56//13
f 91//9 66//11 65//14
f 91//15 65//14 54//16
f 123//17 61//18 64//19
f 123//17 68//20 61//21
f 123//22 64//19 38//23
f 86//24 101//25 63//26
f 86//27 63//26 51//28
f 83//29 42//30 62//31
f 83//29 80//32 42//30
f 83//33 62//31 40//34
f 68//35 39//36 61//21
f 122//37 60//38 30//39
f 122//40 53//41 60//38
f 119//42 59//43 45//44
f 119//45 58//46 59//43
f 119//45 47//47 57//48
f 119//45 85//49 47//47
f 119//45 57//48 58//46
f 120//50 95//51 48//52
f 81//53 121//54 56//10
f 55//55 43//56 91//15
f 96//57 91//9 43//58
f 91//15 54//16 55//55
f 122//37 37//59 52//60
f 122//37 69//61 37//59
f 122//37 52//60 53//41
f 86//62 51//28 107//63
f 93//64 50//8 49//65
f 93//64 3//66 50//67
f 93//64 49//65 29//68
f 89//69 79//70 33//71
f 85//49 48//72 46//73
f 85//49 120//50 48//72
f 85//49 46//73 47//47
f 119//74 45//44 44//75
f 119//45 44//75 20//76
f 80//32 43//56 41//77
f 80//32 96//57 43//56
f 80//32 41//78 42//30
f 83//33 40//34 32//79
f 68//20 19//80 39//36
f 69//61 38//23 36//81
f 69//61 123//17 38//23
f 69//82 36//81 37//83
f 82//84 115//85 35//86
f 82//84 35//86 25//87
f 34//88 121//54 1//89
f 81//53 1//89 121//54
f 1//90 106//91 34//88
f 99//92 33//93 77//94
f 99//95 89//69 33//93
f 99//95 77//94 6//96
f 100//97 32//79 111//98
f 100//97 83//33 32//79
f 100//99 111//98 15//100
f 4//101 31//102 22//103
f 4//101 116//104 31//102
f 86//24 30//39 101//25
f 86//24 122//37 30//39
f 89//69 29//68 28//105
f 89//69 93//106 29//68
f 89//69 28//105 79//70
f 27//107 95//51 90//4
f 120//50 90//4 95//51
f 90//4 125//5 27//108
f 103//109 26//7 82//84
f 3//110 82//84 26//7
f 82//84 25//111 103//109
f 71//112 107//63 24//113
f 71//114 86//62 107//63
f 71//114 24//113 9//115
f 90//1 23//116 118//2
f 90//1 73//117 23//116
f 73//117 117//118 23//119
f 73//117 14//120 117//118
f 71//114 122//37 86//62
f 87//121 85//49 119//45
f 1//90 81//53 91//9
f 82//84 22//122 115//123
f 82//84 4//124 22//122
f 87//121 20//76 21//125
f 87//121 119//45 20//76
f 87//126 21//125 12//127
f 68//35 11//128 17//129
f 68//35 2//130 11//131
f 68//35 17//129 19//132
f 99//95 93//106 89//69
f 18//133 10//134 104//135
f 2//130 104//136 10//134
f 104//135 78//137 18//133
f 4//138 13//139 116//104
f 98//140 15//100 16//141
f 98//140 100//99 15//100
f 98//140 16//141 7//142
f 73//117 70//143 102//144
f 73//117 98//140 70//143
f 73//117 102//144 14//145
f 84//146 13//147 87//121
f 4//101 87//121 13//147
f 87//121 12//148 84//149
f 1//89 92//150 106//151
f 2//130 10//134 11//131
f 8//152 92//153 71//114
f 1//154 71//112 92//153
f 71//112 9//115 8//152
f 98//140 7//155 70//143
f 104//156 6//157 5//158
f 104//156 99//92 6//157
f 104//136 5//158 78//159
f 69//160 68//35 123//17
f 96//57 80//32 83//33
f 100//97 96//161 83//33
f 108//162 99//92 72//163
f 109//164 98//140 105//165
f 72//163 104//136 88//166
f 109//164 100//97 98//140
f 108//162 124//167 4//101
f 105//165 98//140 73//168
f 105//165 73//117 124//169
f 108//170 4//124 99//92
f 72//171 99//92 104//172
f 109//173 1//154 100//99
f 114//174 2//130 71//114
f 114//174 88//166 2//130
f 109//164 74//175 1//90
f 114//176 71//114 74//177
f 124//169 87//121 4//178
f 124//169 73//117 87//121
f 88//179 104//180 2//130
f 2//130 69//61 122//37
f 100//181 1//89 96//57
f 73//117 120//182 87//121
f 2//130 68//35 69//82
f 99//92 82//84 3//66
f 2//130 122//37 71//114
f 99//95 3//110 93//106
f 74//177 71//114 1//89
f 99//92 4//124 82//84
f 73//117 90//4 120//183
f 1//89 91//184 96//185
f 87//126 120//50 85//49
f 94//186 114//174 74//177
f 113//187 88//166 114//174
f 94//186 113//187 114//174
f 97//188 72//171 88//179
f 94//186 74//175 109//164
f 113//189 97//188 88//166
f 112//190 124//167 108//162
f 97//188 110//191 72//163
f 110//192 112//190 108//162
f 76//193 109//164 105//165
f 112//190 105//165 124//194
f 110//192 108//170 72//163
f 76//193 94//195 109//164
f 113//187 110//191 97//188
f 75//196 94//186 76//193
f 75//197 113//187 94//186
f 75//198 112//190 110//192
f 75//196 105//165 112//190
f 75//196 110//191 113//199
f 75//196 76//193 105//165
f 92//153 11//200 10//134
f 24//113 107//63 19//80
f 107//63 51//28 39//36
f 51//28 63//26 39//36
f 63//201 101//202 60//203
f 63//26 60//38 53//41
f 101//202 30//204 60//38
f 24//205 19//80 17//129
f 53//206 52//207 64//19
f 53//206 64//19 61//21
f 52//60 36//208 38//23
f 50//67 26//7 103//109
f 52//207 38//209 64//19
f 53//41 61//18 39//36
f 63//26 53//41 39//210
f 107//63 39//210 19//211
f 37//59 36//212 52//207
f 9//213 24//113 11//128
f 24//113 17//129 11//131
f 70//143 92//150 10//134
f 8//214 9//115 11//131
f 92//150 8//215 11//131
f 40//216 56//10 121//54
f 40//34 65//217 66//218
f 41//78 55//219 54//16
f 40//216 66//11 56//10
f 41//78 43//56 55//55
f 32//220 121//54 34//221
f 62//31 41//78 54//16
f 62//222 42//30 41//78
f 40//34 54//223 65//14
f 40//34 62//222 54//224
f 32//79 40//225 121//226
f 111//98 34//88 106//151
f 111//98 32//79 34//221
f 15//227 111//98 106//91
f 84//146 14//120 102//228
f 16//229 15//100 106//151
f 7//155 16//230 106//151
f 70//143 106//151 92//150
f 70//143 7//155 106//151
f 116//104 10//231 18//133
f 116//104 70//143 10//134
f 59//43 47//47 67//3
f 44//232 23//119 117//118
f 27//107 125//5 67//233
f 46//73 95//234 27//108
f 46//73 48//235 95//234
f 47//236 27//107 67//233
f 47//237 46//73 27//108
f 14//238 21//125 117//239
f 13//147 102//228 70//143
f 59//43 67//3 118//240
f 59//43 57//48 47//236
f 59//43 58//46 57//241
f 45//44 118//2 23//119
f 45//44 59//43 118//2
f 44//75 45//44 23//116
f 20//242 44//232 117//118
f 21//243 20//244 117//239
f 12//148 21//243 14//238
f 84//146 12//148 14//120
f 13//245 84//246 102//228
f 116//247 13//147 70//248
f 5//249 18//133 78//137
f 49//250 103//251 25//252
f 49//253 50//8 103//109
f 29//68 25//252 35//254
f 29//68 49//255 25//252
f 28//105 35//256 115//123
f 28//105 29//68 35//254
f 79//257 115//123 22//122
f 79//70 28//105 115//123
f 33//258 22//122 31//259
f 33//71 79//70 22//122
f 77//94 31//260 116//104
f 77//94 33//258 31//260
f 6//261 116//247 18//262
f 6//261 77//94 116//263
f 5//158 6//157 18//133
