# Blender 3.6.1
# www.blender.org
mtllib scene.mtl
o Cube_Cube.001
v -10.104746 9.689947 -5.026493
v -2.546034 18.059912 1.235606
v -5.823408 14.260937 -16.303930
v 1.735304 22.630901 -10.041828
v -0.568481 1.003516 -4.926968
v 6.990232 9.373482 1.335131
v 3.712856 5.574505 -16.204403
v 11.271568 13.944469 -9.942304
vn -0.7393 0.6734 -0.0077
vn 0.3319 0.3543 -0.8742
vn 0.7393 -0.6734 0.0077
vn -0.3319 -0.3543 0.8742
vn -0.5860 -0.6488 -0.4854
vn 0.5860 0.6488 0.4854
vt 0.625000 0.000000
vt 0.375000 0.250000
vt 0.375000 0.000000
vt 0.625000 0.250000
vt 0.375000 0.500000
vt 0.625000 0.500000
vt 0.375000 0.750000
vt 0.625000 0.750000
vt 0.375000 1.000000
vt 0.125000 0.750000
vt 0.125000 0.500000
vt 0.875000 0.500000
vt 0.625000 1.000000
vt 0.875000 0.750000
s 0
usemtl Material.004
f 2/1/1 3/2/1 1/3/1
f 4/4/2 7/5/2 3/2/2
f 8/6/3 5/7/3 7/5/3
f 6/8/4 1/9/4 5/7/4
f 7/5/5 1/10/5 3/11/5
f 4/12/6 6/8/6 8/6/6
f 2/1/1 4/4/1 3/2/1
f 4/4/2 8/6/2 7/5/2
f 8/6/3 6/8/3 5/7/3
f 6/8/4 2/13/4 1/9/4
f 7/5/5 5/7/5 1/10/5
f 4/12/6 2/14/6 6/8/6
o Plane
v -37.848484 0.016991 37.463707
v 38.773243 0.016991 37.463707
v -37.848484 0.016986 -39.158020
v 38.773243 0.016986 -39.158020
vn -0.0000 1.0000 -0.0000
vt 1.000000 0.000000
vt 0.000000 1.000000
vt 0.000000 0.000000
vt 1.000000 1.000000
s 0
usemtl Material.005
f 10/15/7 11/16/7 9/17/7
f 10/15/7 12/18/7 11/16/7
