# Blender 3.6.1
# www.blender.org
mtllib sfera4.mtl
o Sphere
v 0.000000 19.134146 -46.194000
v 0.000000 -0.000004 -50.000000
v 0.000000 -19.134153 -46.194000
v 0.000000 -46.194000 -19.134146
v 7.322350 46.194000 -17.677654
v 13.529900 35.355347 -32.664051
v 17.677650 19.134146 -42.677650
v 19.134150 -0.000003 -46.194000
v 17.677650 -19.134153 -42.677650
v 13.529900 -35.355354 -32.664043
v 7.322350 -46.194000 -17.677647
v 13.529900 46.194000 -13.529903
v 25.000000 35.355350 -25.000002
v 32.664101 19.134148 -32.664047
v 35.355350 -0.000003 -35.355350
v 32.664101 -19.134151 -32.664047
v 25.000000 -35.355350 -24.999998
v 13.529900 -46.194000 -13.529896
v 17.677650 46.194000 -7.322353
v 32.664047 35.355350 -13.529902
v 42.677650 19.134148 -17.677652
v 46.194000 -0.000001 -19.134150
v 42.677650 -19.134151 -17.677649
v 32.664047 -35.355350 -13.529897
v 17.677650 -46.194000 -7.322347
v 19.134150 46.194000 -0.000003
v 35.355350 35.355350 -0.000003
v 46.194000 19.134150 -0.000001
v 50.000000 0.000000 0.000000
v 46.194000 -19.134150 0.000001
v 35.355350 -35.355350 0.000003
v 19.134150 -46.194000 0.000003
v 17.677650 46.194000 7.322347
v 32.664047 35.355350 13.529897
v 42.677650 19.134151 17.677698
v 46.193951 0.000001 19.134199
v 42.677650 -19.134148 17.677702
v 32.664047 -35.355350 13.529902
v 17.677650 -46.194000 7.322353
v 13.529900 46.194000 13.529896
v 25.000000 35.355350 24.999998
v 32.664047 19.134151 32.664101
v 35.355350 0.000003 35.355350
v 32.664047 -19.134148 32.664101
v 25.000000 -35.355350 25.000002
v 13.529900 -46.194000 13.529903
v 7.322350 46.194000 17.677647
v 13.529900 35.355354 32.664043
v 17.677650 19.134153 42.677650
v 19.134150 0.000003 46.194000
v 17.677650 -19.134146 42.677650
v 13.529900 -35.355347 32.664051
v 7.322350 -46.194000 17.677654
v 0.000000 46.194000 19.134146
v 0.000000 35.355354 35.355347
v 0.000000 19.134153 46.193951
v 0.000000 0.000004 50.000000
v 0.000000 -19.134146 46.193951
v 0.000000 -35.355347 35.355354
v 0.000000 -46.194000 19.134153
v 0.000000 -50.000000 0.000004
v 0.000000 50.000000 -0.000004
v -7.322350 46.194000 17.677647
v -13.529900 35.355354 32.664043
v -17.677700 19.134153 42.677650
v -19.134199 0.000003 46.193951
v -17.677700 -19.134146 42.677650
v -13.529900 -35.355347 32.664051
v -7.322350 -46.194000 17.677654
v -13.529900 46.194000 13.529896
v -25.000000 35.355350 24.999998
v -32.664101 19.134151 32.664047
v -35.355350 0.000003 35.355301
v -32.664101 -19.134148 32.664047
v -25.000000 -35.355350 25.000002
v -13.529900 -46.194000 13.529903
v -17.677650 46.194000 7.322297
v -32.664047 35.355350 13.529897
v -42.677650 19.134151 17.677649
v -46.194000 0.000001 19.134150
v -42.677650 -19.134148 17.677652
v -32.664047 -35.355350 13.529902
v -17.677650 -46.194000 7.322304
v -19.134150 46.194000 -0.000003
v -35.355350 35.355350 -0.000003
v -46.193951 19.134150 -0.000001
v -50.000000 -0.000000 -0.000050
v -46.193951 -19.134150 0.000001
v -35.355350 -35.355350 0.000003
v -19.134150 -46.194000 0.000003
v -17.677650 46.194000 -7.322353
v -32.664047 35.355350 -13.529902
v -42.677650 19.134148 -17.677702
v -46.193951 -0.000001 -19.134199
v -42.677650 -19.134151 -17.677698
v -32.664047 -35.355350 -13.529897
v -17.677650 -46.194000 -7.322347
v -13.529900 46.194000 -13.529903
v -25.000000 35.355350 -25.000002
v -32.664047 19.134148 -32.664101
v -35.355301 -0.000003 -35.355350
v -32.664047 -19.134151 -32.664101
v -25.000000 -35.355350 -24.999998
v -13.529900 -46.194000 -13.529896
v -7.322300 46.194000 -17.677704
v -13.529900 35.355347 -32.664051
v -17.677650 19.134146 -42.677650
v -19.134150 -0.000003 -46.194000
v -17.677650 -19.134153 -42.677650
v -13.529900 -35.355354 -32.664043
v -7.322300 -46.194000 -17.677696
v 0.000000 46.194000 -19.134153
v 0.000000 35.355347 -35.355354
v 0.000000 -35.355354 -35.355347
vn 0.1915 -0.1915 -0.9626
vn 0.1632 0.5481 -0.8203
vn 0.0388 0.9800 -0.1949
vn 0.0388 -0.9800 -0.1949
vn 0.1632 -0.5481 -0.8203
vn 0.1915 0.1915 -0.9626
vn 0.1098 0.8264 -0.5522
vn 0.1098 -0.8264 -0.5522
vn 0.1104 -0.9800 -0.1653
vn 0.4647 -0.5481 -0.6954
vn 0.5453 0.1915 -0.8161
vn 0.3128 0.8264 -0.4681
vn 0.3128 -0.8264 -0.4681
vn 0.5453 -0.1915 -0.8161
vn 0.4647 0.5481 -0.6954
vn 0.1104 0.9800 -0.1653
vn 0.4681 0.8264 -0.3128
vn 0.4681 -0.8264 -0.3128
vn 0.8161 -0.1915 -0.5453
vn 0.6954 0.5481 -0.4647
vn 0.1653 0.9800 -0.1104
vn 0.1653 -0.9800 -0.1104
vn 0.6954 -0.5481 -0.4647
vn 0.8161 0.1915 -0.5453
vn 0.5522 -0.8264 -0.1098
vn 0.9626 -0.1915 -0.1915
vn 0.8203 0.5481 -0.1632
vn 0.1949 0.9800 -0.0388
vn 0.1949 -0.9800 -0.0388
vn 0.8203 -0.5481 -0.1632
vn 0.9626 0.1915 -0.1915
vn 0.5522 0.8264 -0.1098
vn 0.1949 0.9800 0.0388
vn 0.1949 -0.9800 0.0388
vn 0.8203 -0.5481 0.1632
vn 0.9626 0.1915 0.1915
vn 0.5522 0.8264 0.1098
vn 0.5522 -0.8264 0.1098
vn 0.9626 -0.1915 0.1915
vn 0.8203 0.5481 0.1632
vn 0.6954 -0.5481 0.4647
vn 0.8161 0.1915 0.5453
vn 0.4681 0.8264 0.3128
vn 0.4681 -0.8264 0.3128
vn 0.8161 -0.1915 0.5453
vn 0.6954 0.5481 0.4647
vn 0.1653 0.9800 0.1104
vn 0.1653 -0.9800 0.1104
vn 0.3128 -0.8264 0.4681
vn 0.5453 -0.1915 0.8161
vn 0.4647 0.5481 0.6954
vn 0.1104 0.9800 0.1653
vn 0.1104 -0.9800 0.1653
vn 0.4647 -0.5481 0.6954
vn 0.5453 0.1915 0.8161
vn 0.3128 0.8264 0.4681
vn 0.1915 -0.1915 0.9626
vn 0.1632 0.5481 0.8203
vn 0.0388 0.9800 0.1949
vn 0.0388 -0.9800 0.1949
vn 0.1632 -0.5481 0.8203
vn 0.1915 0.1915 0.9626
vn 0.1098 0.8264 0.5522
vn 0.1098 -0.8264 0.5522
vn -0.0388 -0.9800 0.1949
vn -0.1632 -0.5481 0.8203
vn -0.1915 0.1915 0.9626
vn -0.1098 0.8264 0.5522
vn -0.1098 -0.8264 0.5522
vn -0.1915 -0.1915 0.9626
vn -0.1632 0.5481 0.8203
vn -0.0388 0.9800 0.1949
vn -0.5453 0.1915 0.8161
vn -0.3128 0.8264 0.4681
vn -0.3128 -0.8264 0.4681
vn -0.5453 -0.1915 0.8161
vn -0.4647 0.5481 0.6954
vn -0.1104 0.9800 0.1653
vn -0.1104 -0.9800 0.1653
vn -0.4647 -0.5481 0.6954
vn -0.4681 -0.8264 0.3128
vn -0.8161 -0.1915 0.5453
vn -0.6954 0.5481 0.4647
vn -0.1653 0.9800 0.1104
vn -0.1653 -0.9800 0.1104
vn -0.6954 -0.5481 0.4647
vn -0.8161 0.1915 0.5453
vn -0.4681 0.8264 0.3128
vn -0.8203 0.5481 0.1632
vn -0.1949 0.9800 0.0388
vn -0.1949 -0.9800 0.0388
vn -0.8203 -0.5481 0.1632
vn -0.9626 0.1915 0.1915
vn -0.5522 0.8264 0.1098
vn -0.5522 -0.8264 0.1098
vn -0.9626 -0.1915 0.1915
vn -0.1949 -0.9800 -0.0388
vn -0.8203 -0.5481 -0.1632
vn -0.9626 0.1915 -0.1915
vn -0.5522 0.8264 -0.1098
vn -0.5522 -0.8264 -0.1098
vn -0.9626 -0.1915 -0.1915
vn -0.8203 0.5481 -0.1632
vn -0.1949 0.9800 -0.0388
vn -0.4681 0.8264 -0.3128
vn -0.4681 -0.8264 -0.3128
vn -0.8161 -0.1915 -0.5453
vn -0.6954 0.5481 -0.4647
vn -0.1653 0.9800 -0.1104
vn -0.1653 -0.9800 -0.1104
vn -0.6954 -0.5481 -0.4647
vn -0.8161 0.1915 -0.5453
vn -0.3128 -0.8264 -0.4681
vn -0.5453 -0.1915 -0.8161
vn -0.4647 0.5481 -0.6954
vn -0.1104 0.9800 -0.1653
vn -0.1104 -0.9800 -0.1653
vn -0.4647 -0.5481 -0.6954
vn -0.5453 0.1915 -0.8161
vn -0.3128 0.8264 -0.4681
vn -0.0388 0.9800 -0.1949
vn -0.0388 -0.9800 -0.1949
vn -0.1632 -0.5481 -0.8203
vn -0.1915 0.1915 -0.9626
vn -0.1098 0.8264 -0.5522
vn -0.1098 -0.8264 -0.5522
vn -0.1915 -0.1915 -0.9626
vn -0.1632 0.5481 -0.8203
vt 0.750000 0.500000
vt 0.687500 0.375000
vt 0.750000 0.375000
vt 0.750000 0.750000
vt 0.687500 0.625000
vt 0.750000 0.625000
vt 0.750000 0.875000
vt 0.718750 1.000000
vt 0.687500 0.875000
vt 0.718750 0.000000
vt 0.750000 0.125000
vt 0.687500 0.125000
vt 0.750000 0.250000
vt 0.687500 0.250000
vt 0.687500 0.500000
vt 0.687500 0.750000
vt 0.656250 0.000000
vt 0.625000 0.125000
vt 0.625000 0.250000
vt 0.625000 0.500000
vt 0.625000 0.750000
vt 0.625000 0.375000
vt 0.625000 0.625000
vt 0.656250 1.000000
vt 0.625000 0.875000
vt 0.562500 0.750000
vt 0.562500 0.125000
vt 0.562500 0.375000
vt 0.562500 0.625000
vt 0.593750 1.000000
vt 0.562500 0.875000
vt 0.593750 0.000000
vt 0.562500 0.250000
vt 0.562500 0.500000
vt 0.500000 0.125000
vt 0.500000 0.500000
vt 0.500000 0.375000
vt 0.500000 0.750000
vt 0.500000 0.625000
vt 0.531250 1.000000
vt 0.500000 0.875000
vt 0.531250 0.000000
vt 0.500000 0.250000
vt 0.468750 1.000000
vt 0.437500 0.875000
vt 0.468750 0.000000
vt 0.437500 0.125000
vt 0.437500 0.250000
vt 0.437500 0.500000
vt 0.437500 0.750000
vt 0.437500 0.375000
vt 0.437500 0.625000
vt 0.375000 0.250000
vt 0.375000 0.625000
vt 0.375000 0.500000
vt 0.375000 0.875000
vt 0.375000 0.750000
vt 0.375000 0.125000
vt 0.375000 0.375000
vt 0.406250 1.000000
vt 0.406250 0.000000
vt 0.312500 0.125000
vt 0.312500 0.500000
vt 0.312500 0.375000
vt 0.312500 0.625000
vt 0.343750 1.000000
vt 0.312500 0.875000
vt 0.343750 0.000000
vt 0.312500 0.250000
vt 0.312500 0.750000
vt 0.250000 0.375000
vt 0.250000 0.625000
vt 0.281250 1.000000
vt 0.250000 0.875000
vt 0.281250 0.000000
vt 0.250000 0.125000
vt 0.250000 0.250000
vt 0.250000 0.500000
vt 0.250000 0.750000
vt 0.218750 0.000000
vt 0.187500 0.125000
vt 0.187500 0.375000
vt 0.187500 0.250000
vt 0.187500 0.500000
vt 0.187500 0.750000
vt 0.187500 0.625000
vt 0.218750 1.000000
vt 0.187500 0.875000
vt 0.125000 0.625000
vt 0.125000 0.500000
vt 0.125000 0.750000
vt 0.125000 0.250000
vt 0.125000 0.125000
vt 0.125000 0.375000
vt 0.156250 1.000000
vt 0.125000 0.875000
vt 0.156250 0.000000
vt 0.062500 0.125000
vt 0.062500 0.375000
vt 0.062500 0.625000
vt 0.093750 1.000000
vt 0.062500 0.875000
vt 0.093750 0.000000
vt 0.062500 0.250000
vt 0.062500 0.500000
vt 0.062500 0.750000
vt 0.000000 0.625000
vt 0.031250 1.000000
vt 0.000000 0.875000
vt 0.031250 0.000000
vt 0.000000 0.125000
vt 0.000000 0.375000
vt 0.000000 0.250000
vt 0.000000 0.500000
vt 0.000000 0.750000
vt 0.968750 0.000000
vt 1.000000 0.125000
vt 0.937500 0.125000
vt 1.000000 0.375000
vt 0.937500 0.250000
vt 1.000000 0.250000
vt 1.000000 0.500000
vt 0.937500 0.625000
vt 0.937500 0.500000
vt 1.000000 0.875000
vt 0.937500 0.750000
vt 1.000000 0.750000
vt 0.937500 0.375000
vt 1.000000 0.625000
vt 0.968750 1.000000
vt 0.937500 0.875000
vt 0.875000 0.750000
vt 0.875000 0.125000
vt 0.875000 0.375000
vt 0.875000 0.625000
vt 0.906250 1.000000
vt 0.875000 0.875000
vt 0.906250 0.000000
vt 0.875000 0.250000
vt 0.875000 0.500000
vt 0.812500 0.125000
vt 0.812500 0.375000
vt 0.812500 0.625000
vt 0.843750 1.000000
vt 0.812500 0.875000
vt 0.843750 0.000000
vt 0.812500 0.250000
vt 0.812500 0.500000
vt 0.812500 0.750000
vt 0.781250 1.000000
vt 0.781250 0.000000
s 0
usemtl Material.006
f 2/1/1 9/2/1 3/3/1
f 113/4/2 7/5/2 1/6/2
f 112/7/3 62/8/3 5/9/3
f 61/10/4 4/11/4 11/12/4
f 114/13/5 9/2/5 10/14/5
f 1/6/6 8/15/6 2/1/6
f 113/4/7 5/9/7 6/16/7
f 114/13/8 11/12/8 4/11/8
f 61/17/9 11/12/9 18/18/9
f 9/2/10 17/19/10 10/14/10
f 7/5/11 15/20/11 8/15/11
f 5/9/12 13/21/12 6/16/12
f 10/14/13 18/18/13 11/12/13
f 9/2/14 15/20/14 16/22/14
f 6/16/15 14/23/15 7/5/15
f 5/9/16 62/24/16 12/25/16
f 12/25/17 20/26/17 13/21/17
f 17/19/18 25/27/18 18/18/18
f 15/20/19 23/28/19 16/22/19
f 13/21/20 21/29/20 14/23/20
f 12/25/21 62/30/21 19/31/21
f 61/32/22 18/18/22 25/27/22
f 17/19/23 23/28/23 24/33/23
f 15/20/24 21/29/24 22/34/24
f 24/33/25 32/35/25 25/27/25
f 23/28/26 29/36/26 30/37/26
f 21/29/27 27/38/27 28/39/27
f 19/31/28 62/40/28 26/41/28
f 61/42/29 25/27/29 32/35/29
f 23/28/30 31/43/30 24/33/30
f 21/29/31 29/36/31 22/34/31
f 19/31/32 27/38/32 20/26/32
f 26/41/33 62/44/33 33/45/33
f 61/46/34 32/35/34 39/47/34
f 30/37/35 38/48/35 31/43/35
f 28/39/36 36/49/36 29/36/36
f 27/38/37 33/45/37 34/50/37
f 32/35/38 38/48/38 39/47/38
f 29/36/39 37/51/39 30/37/39
f 27/38/40 35/52/40 28/39/40
f 37/51/41 45/53/41 38/48/41
f 36/49/42 42/54/42 43/55/42
f 34/50/43 40/56/43 41/57/43
f 39/47/44 45/53/44 46/58/44
f 36/49/45 44/59/45 37/51/45
f 34/50/46 42/54/46 35/52/46
f 33/45/47 62/60/47 40/56/47
f 61/61/48 39/47/48 46/58/48
f 45/53/49 53/62/49 46/58/49
f 44/59/50 50/63/50 51/64/50
f 41/57/51 49/65/51 42/54/51
f 40/56/52 62/66/52 47/67/52
f 61/68/53 46/58/53 53/62/53
f 45/53/54 51/64/54 52/69/54
f 42/54/55 50/63/55 43/55/55
f 40/56/56 48/70/56 41/57/56
f 50/63/57 58/71/57 51/64/57
f 48/70/58 56/72/58 49/65/58
f 47/67/59 62/73/59 54/74/59
f 61/75/60 53/62/60 60/76/60
f 51/64/61 59/77/61 52/69/61
f 50/63/62 56/72/62 57/78/62
f 47/67/63 55/79/63 48/70/63
f 53/62/64 59/77/64 60/76/64
f 61/80/65 60/76/65 69/81/65
f 59/77/66 67/82/66 68/83/66
f 56/72/67 66/84/67 57/78/67
f 54/74/68 64/85/68 55/79/68
f 59/77/69 69/81/69 60/76/69
f 57/78/70 67/82/70 58/71/70
f 55/79/71 65/86/71 56/72/71
f 54/74/72 62/87/72 63/88/72
f 66/84/73 72/89/73 73/90/73
f 63/88/74 71/91/74 64/85/74
f 69/81/75 75/92/75 76/93/75
f 66/84/76 74/94/76 67/82/76
f 64/85/77 72/89/77 65/86/77
f 63/88/78 62/95/78 70/96/78
f 61/97/79 69/81/79 76/93/79
f 68/83/80 74/94/80 75/92/80
f 75/92/81 83/98/81 76/93/81
f 73/90/82 81/99/82 74/94/82
f 71/91/83 79/100/83 72/89/83
f 70/96/84 62/101/84 77/102/84
f 61/103/85 76/93/85 83/98/85
f 75/92/86 81/99/86 82/104/86
f 73/90/87 79/100/87 80/105/87
f 70/96/88 78/106/88 71/91/88
f 78/106/89 86/107/89 79/100/89
f 77/102/90 62/108/90 84/109/90
f 61/110/91 83/98/91 90/111/91
f 82/104/92 88/112/92 89/113/92
f 80/105/93 86/107/93 87/114/93
f 78/106/94 84/109/94 85/115/94
f 82/104/95 90/111/95 83/98/95
f 80/105/96 88/112/96 81/99/96
f 61/116/97 90/117/97 97/118/97
f 88/119/98 96/120/98 89/121/98
f 87/122/99 93/123/99 94/124/99
f 84/125/100 92/126/100 85/127/100
f 89/121/101 97/118/101 90/117/101
f 87/122/102 95/128/102 88/119/102
f 85/127/103 93/123/103 86/129/103
f 84/125/104 62/130/104 91/131/104
f 91/131/105 99/132/105 92/126/105
f 96/120/106 104/133/106 97/118/106
f 94/124/107 102/134/107 95/128/107
f 92/126/108 100/135/108 93/123/108
f 91/131/109 62/136/109 98/137/109
f 61/138/110 97/118/110 104/133/110
f 96/120/111 102/134/111 103/139/111
f 94/124/112 100/135/112 101/140/112
f 103/139/113 111/141/113 104/133/113
f 101/140/114 109/142/114 102/134/114
f 99/132/115 107/143/115 100/135/115
f 98/137/116 62/144/116 105/145/116
f 61/146/117 104/133/117 111/141/117
f 103/139/118 109/142/118 110/147/118
f 101/140/119 107/143/119 108/148/119
f 98/137/120 106/149/120 99/132/120
f 105/145/121 62/150/121 112/7/121
f 61/151/122 111/141/122 4/11/122
f 110/147/123 3/3/123 114/13/123
f 107/143/124 2/1/124 108/148/124
f 106/149/125 112/7/125 113/4/125
f 110/147/126 4/11/126 111/141/126
f 108/148/127 3/3/127 109/142/127
f 106/149/128 1/6/128 107/143/128
f 2/1/1 8/15/1 9/2/1
f 113/4/2 6/16/2 7/5/2
f 114/13/5 3/3/5 9/2/5
f 1/6/6 7/5/6 8/15/6
f 113/4/7 112/7/7 5/9/7
f 114/13/8 10/14/8 11/12/8
f 9/2/10 16/22/10 17/19/10
f 7/5/11 14/23/11 15/20/11
f 5/9/12 12/25/12 13/21/12
f 10/14/13 17/19/13 18/18/13
f 9/2/14 8/15/14 15/20/14
f 6/16/15 13/21/15 14/23/15
f 12/25/17 19/31/17 20/26/17
f 17/19/18 24/33/18 25/27/18
f 15/20/19 22/34/19 23/28/19
f 13/21/20 20/26/20 21/29/20
f 17/19/23 16/22/23 23/28/23
f 15/20/24 14/23/24 21/29/24
f 24/33/25 31/43/25 32/35/25
f 23/28/26 22/34/26 29/36/26
f 21/29/27 20/26/27 27/38/27
f 23/28/30 30/37/30 31/43/30
f 21/29/31 28/39/31 29/36/31
f 19/31/32 26/41/32 27/38/32
f 30/37/35 37/51/35 38/48/35
f 28/39/36 35/52/36 36/49/36
f 27/38/37 26/41/37 33/45/37
f 32/35/38 31/43/38 38/48/38
f 29/36/39 36/49/39 37/51/39
f 27/38/40 34/50/40 35/52/40
f 37/51/41 44/59/41 45/53/41
f 36/49/42 35/52/42 42/54/42
f 34/50/43 33/45/43 40/56/43
f 39/47/44 38/48/44 45/53/44
f 36/49/45 43/55/45 44/59/45
f 34/50/46 41/57/46 42/54/46
f 45/53/49 52/69/49 53/62/49
f 44/59/50 43/55/50 50/63/50
f 41/57/51 48/70/51 49/65/51
f 45/53/54 44/59/54 51/64/54
f 42/54/55 49/65/55 50/63/55
f 40/56/56 47/67/56 48/70/56
f 50/63/57 57/78/57 58/71/57
f 48/70/58 55/79/58 56/72/58
f 51/64/61 58/71/61 59/77/61
f 50/63/62 49/65/62 56/72/62
f 47/67/63 54/74/63 55/79/63
f 53/62/64 52/69/64 59/77/64
f 59/77/66 58/71/66 67/82/66
f 56/72/67 65/86/67 66/84/67
f 54/74/68 63/88/68 64/85/68
f 59/77/69 68/83/69 69/81/69
f 57/78/70 66/84/70 67/82/70
f 55/79/71 64/85/71 65/86/71
f 66/84/73 65/86/73 72/89/73
f 63/88/74 70/96/74 71/91/74
f 69/81/75 68/83/75 75/92/75
f 66/84/76 73/90/76 74/94/76
f 64/85/77 71/91/77 72/89/77
f 68/83/80 67/82/80 74/94/80
f 75/92/81 82/104/81 83/98/81
f 73/90/82 80/105/82 81/99/82
f 71/91/83 78/106/83 79/100/83
f 75/92/86 74/94/86 81/99/86
f 73/90/87 72/89/87 79/100/87
f 70/96/88 77/102/88 78/106/88
f 78/106/89 85/115/89 86/107/89
f 82/104/92 81/99/92 88/112/92
f 80/105/93 79/100/93 86/107/93
f 78/106/94 77/102/94 84/109/94
f 82/104/95 89/113/95 90/111/95
f 80/105/96 87/114/96 88/112/96
f 88/119/98 95/128/98 96/120/98
f 87/122/99 86/129/99 93/123/99
f 84/125/100 91/131/100 92/126/100
f 89/121/101 96/120/101 97/118/101
f 87/122/102 94/124/102 95/128/102
f 85/127/103 92/126/103 93/123/103
f 91/131/105 98/137/105 99/132/105
f 96/120/106 103/139/106 104/133/106
f 94/124/107 101/140/107 102/134/107
f 92/126/108 99/132/108 100/135/108
f 96/120/111 95/128/111 102/134/111
f 94/124/112 93/123/112 100/135/112
f 103/139/113 110/147/113 111/141/113
f 101/140/114 108/148/114 109/142/114
f 99/132/115 106/149/115 107/143/115
f 103/139/118 102/134/118 109/142/118
f 101/140/119 100/135/119 107/143/119
f 98/137/120 105/145/120 106/149/120
f 110/147/123 109/142/123 3/3/123
f 107/143/124 1/6/124 2/1/124
f 106/149/125 105/145/125 112/7/125
f 110/147/126 114/13/126 4/11/126
f 108/148/127 2/1/127 3/3/127
f 106/149/128 113/4/128 1/6/128
