# Blender 3.6.1
# www.blender.org
mtllib spaceship.mtl
o Lo_poly_Spaceship_04_by_Liz_Reddington
v -39.193348 10.256876 30.580158
v -37.512951 10.256876 30.580158
v -39.193348 11.937275 30.580158
v -37.512951 11.937275 30.580158
v -39.193348 11.937274 16.842434
v -37.512951 11.937274 16.842434
v -39.193348 10.256875 16.842434
v -37.512951 10.256875 16.842434
v -39.083988 2.164436 42.297749
v -37.251217 2.164436 42.297749
v -39.083988 3.997207 42.297749
v -37.251217 3.997207 42.297749
v -39.083988 3.997205 21.761209
v -37.251217 3.997205 21.761209
v -39.083988 2.164435 21.761209
v -37.251217 2.164435 21.761209
v -39.879395 1.369030 21.827353
v -36.455811 1.369030 21.827353
v -39.879395 4.792610 21.827353
v -36.455811 4.792610 21.827353
v -39.879395 4.792606 -28.551897
v -36.455811 4.792606 -28.551897
v -39.879395 1.369026 -28.551897
v -36.455811 1.369026 -28.551897
v -39.802464 9.647758 16.882257
v -36.903831 9.647758 16.882257
v -39.802464 12.546391 16.882257
v -36.903831 12.546391 16.882257
v -39.802464 12.546389 -28.348549
v -36.903831 12.546389 -28.348549
v -39.802464 9.647755 -28.348549
v -36.903831 9.647755 -28.348549
v 36.751518 9.647758 16.882257
v 39.650154 9.647758 16.882257
v 36.751518 12.546391 16.882257
v 39.650154 12.546391 16.882257
v 36.751518 12.546389 -28.348549
v 39.650154 12.546389 -28.348549
v 36.751518 9.647755 -28.348549
v 39.650154 9.647755 -28.348549
v 37.284451 2.164436 42.297749
v 39.117222 2.164436 42.297749
v 37.284451 3.997207 42.297749
v 39.117222 3.997207 42.297749
v 37.284451 3.997205 21.761209
v 39.117222 3.997205 21.761209
v 37.284451 2.164435 21.761209
v 39.117222 2.164435 21.761209
v 37.360638 10.256876 30.580158
v 39.041035 10.256876 30.580158
v 37.360638 11.937275 30.580158
v 39.041035 11.937275 30.580158
v 37.360638 11.937274 16.842434
v 39.041035 11.937274 16.842434
v 37.360638 10.256875 16.842434
v 39.041035 10.256875 16.842434
v -11.786855 -15.277002 18.862276
v 11.786855 -15.277002 18.862276
v -11.786855 21.257250 18.862272
v 11.786855 21.257250 18.862272
v -11.485346 22.359808 -44.441227
v 11.485346 22.359808 -44.441227
v -11.304492 0.053312 -40.608494
v 11.304492 0.053312 -40.608494
v -16.767712 4.723538 14.908894
v 16.767712 4.723538 14.908894
v -6.629755 -9.461649 51.975330
v 6.629755 -9.461649 51.975330
v 9.466521 0.278146 54.180786
v -9.466521 0.278146 54.180786
v 8.655680 15.931538 33.977886
v -8.655680 15.931538 33.977886
v -39.941631 -6.834816 13.993437
v -43.252041 -6.834816 13.993437
v -39.941631 20.407242 13.993434
v -43.252041 20.407242 13.993434
v -39.941631 20.407238 -35.998383
v -43.252041 20.407238 -35.998383
v -39.941631 -6.834819 -35.998383
v -43.252041 -6.834819 -35.998383
v -26.302914 39.205109 -3.344561
v -28.221533 39.205109 -3.344561
v -28.221533 39.205105 -26.608181
v -26.302914 39.205105 -26.608181
v -26.302914 -25.632689 -26.608175
v -28.221533 -25.632689 -26.608175
v -28.221533 -25.632687 -3.344556
v -26.302914 -25.632687 -3.344556
v -12.530424 8.139332 -6.482609
v -40.200340 19.234575 -3.328202
v -12.530424 11.094442 -6.482609
v -40.200340 20.604429 -3.328202
v -12.530424 11.261796 -31.833647
v -40.200340 20.535694 -12.834144
v -12.530424 8.306687 -31.833647
v -40.200340 19.165842 -12.834144
v -12.530424 8.139332 -6.482609
v -40.200340 -7.116845 -3.328200
v -12.530424 11.094442 -6.482609
v -40.200340 -5.746991 -3.328200
v -12.530424 11.261796 -31.833647
v -40.200340 -5.815722 -12.834142
v -12.530424 8.306687 -31.833647
v -40.200340 -7.185576 -12.834141
v 39.941631 -6.834816 13.993437
v 43.252041 -6.834816 13.993437
v 39.941631 20.407242 13.993434
v 43.252041 20.407242 13.993434
v 39.941631 20.407238 -35.998383
v 43.252041 20.407238 -35.998383
v 39.941631 -6.834819 -35.998383
v 43.252041 -6.834819 -35.998383
v 26.302914 39.205109 -3.344561
v 28.221533 39.205109 -3.344561
v 28.221533 39.205105 -26.608181
v 26.302914 39.205105 -26.608181
v 26.302914 -25.632689 -26.608175
v 28.221533 -25.632689 -26.608175
v 28.221533 -25.632687 -3.344556
v 26.302914 -25.632687 -3.344556
v 12.530424 8.139332 -6.482609
v 40.200340 19.234575 -3.328202
v 12.530424 11.094442 -6.482609
v 40.200340 20.604429 -3.328202
v 12.530424 11.261796 -31.833647
v 40.200340 20.535694 -12.834144
v 12.530424 8.306687 -31.833647
v 40.200340 19.165842 -12.834144
v 12.530424 8.139332 -6.482609
v 40.200340 -7.116845 -3.328200
v 12.530424 11.094442 -6.482609
v 40.200340 -5.746991 -3.328200
v 12.530424 11.261796 -31.833647
v 40.200340 -5.815722 -12.834142
v 12.530424 8.306687 -31.833647
v 40.200340 -7.185576 -12.834141
v -6.921163 3.633889 -40.722385
v 6.921163 3.633889 -40.722385
v -6.921163 17.476213 -40.722385
v 6.921163 17.476213 -40.722385
v -9.226966 19.782017 -54.180786
v 9.226966 19.782017 -54.180786
v -9.226966 1.328085 -54.180786
v 9.226966 1.328085 -54.180786
v -6.305094 16.860144 -54.180786
v 6.305094 16.860144 -54.180786
v 6.305094 4.249958 -54.180786
v -6.305094 4.249958 -54.180786
v -4.287464 14.842515 -50.727962
v 4.287464 14.842515 -50.727962
v 4.287464 6.267589 -50.727962
v -4.287464 6.267589 -50.727962
v 36.489044 1.369030 21.827353
v 39.912628 1.369030 21.827353
v 36.489044 4.792610 21.827353
v 39.912628 4.792610 21.827353
v 36.489044 4.792606 -28.551897
v 39.912628 4.792606 -28.551897
v 36.489044 1.369026 -28.551897
v 39.912628 1.369026 -28.551897
v 26.302914 -25.632687 -3.565026
v 39.941631 -6.834817 -8.742393
v 39.941631 20.407238 -18.516794
v 26.472784 38.970978 -26.725136
v 43.252041 -6.834817 -7.150453
v 43.252041 20.407238 -16.924854
v -43.252041 -6.834817 -12.893115
v -43.252041 20.407238 -22.667467
v -39.941631 -6.834817 -11.821688
v -39.941631 20.407238 -21.596092
vn -0.0000 -0.0000 1.0000
vn -0.0000 1.0000 -0.0000
vn -0.0000 -1.0000 -0.0000
vn 1.0000 -0.0000 -0.0000
vn -1.0000 -0.0000 -0.0000
vn -0.0000 -0.0000 -1.0000
vn -0.0000 0.7905 0.6125
vn -0.0000 0.9998 0.0174
vn -0.0000 -0.9683 -0.2496
vn 0.9575 0.2883 0.0005
vn -0.9575 0.2883 0.0005
vn -0.0000 -0.1693 -0.9856
vn -0.9951 -0.0245 -0.0959
vn -0.0000 -0.2208 0.9753
vn 0.9642 -0.2547 -0.0735
vn -0.0000 -0.9849 0.1730
vn 0.9277 -0.3154 0.1999
vn -0.9653 -0.2096 0.1557
vn 0.9377 0.2177 0.2709
vn -0.0000 0.9432 0.3323
vn -0.9256 0.3162 0.2079
vn 0.9256 0.3162 0.2079
vn -0.9377 0.2177 0.2709
vn -0.0000 0.6780 0.7351
vn -0.7810 0.6245 -0.0000
vn -0.0000 0.4469 -0.8946
vn 0.8094 -0.5873 -0.0000
vn -0.0000 -0.4469 -0.8946
vn -0.7810 -0.6245 -0.0000
vn -0.0000 -0.6780 0.7351
vn 0.8094 0.5873 -0.0000
vn 0.1133 -0.0000 0.9936
vn 0.3243 0.9459 -0.0068
vn -0.5661 -0.0000 -0.8244
vn -0.3690 -0.9294 -0.0061
vn -0.5204 0.8539 -0.0062
vn 0.4855 -0.8742 -0.0058
vn 0.7810 0.6245 -0.0000
vn -0.8094 -0.5873 -0.0000
vn 0.7810 -0.6245 -0.0000
vn -0.8094 0.5873 -0.0000
vn -0.1133 -0.0000 0.9936
vn -0.3216 0.9468 0.0063
vn 0.5661 -0.0000 -0.8244
vn 0.3690 -0.9294 -0.0061
vn 0.5224 0.8527 0.0056
vn -0.4855 -0.8742 -0.0058
vn -0.0000 0.9856 0.1689
vn -0.0000 -0.9856 0.1689
vn 0.9856 -0.0000 0.1689
vn -0.9856 -0.0000 0.1689
vn -0.0000 -0.8634 -0.5045
vn -0.8634 -0.0000 -0.5045
vn -0.0000 0.8634 -0.5045
vn 0.8634 -0.0000 -0.5045
vn -0.9642 -0.2547 -0.0735
vn 0.9951 -0.0245 -0.0959
vn 0.9653 -0.2096 0.1557
vn -0.9277 -0.3154 0.1999
vn 0.3216 0.9468 0.0063
vn -0.3715 -0.9284 0.0067
vn -0.5224 0.8527 0.0056
vn 0.4834 -0.8754 0.0063
vn -0.3243 0.9459 -0.0068
vn 0.3715 -0.9284 0.0067
vn 0.5204 0.8539 -0.0062
vn -0.4834 -0.8754 0.0063
vt 0.625000 0.000000
vt 0.375000 0.250000
vt 0.375000 0.000000
vt 0.625000 0.250000
vt 0.375000 0.500000
vt 0.625000 0.750000
vt 0.375000 1.000000
vt 0.375000 0.750000
vt 0.875000 0.000000
vt 0.125000 0.250000
vt 0.125000 0.000000
vt 0.625000 0.500000
vt 0.625000 0.125000
vt 0.375000 0.125000
vt 0.875000 0.187500
vt 0.125000 0.187500
vt 0.625000 0.625000
vt 0.375000 0.625000
vt 0.808335 0.250000
vt 0.759455 0.000000
vt 0.245903 0.000000
vt 0.625000 0.433334
vt 0.375000 0.427977
vt 0.625000 0.865545
vt 0.625000 1.000000
vt 0.375000 0.870903
vt 0.375000 0.997631
vt 0.730737 0.000000
vt 0.212422 0.250000
vt 0.625000 0.404617
vt 0.375000 0.412578
vt 0.625000 0.894263
vt 0.375000 0.886302
vt 0.261302 0.000000
vt 0.779617 0.250000
vt 0.875000 0.250000
vt 0.197023 0.250000
s 0
usemtl lambert4SG
f 2/1/1 3/2/1 1/3/1
f 4/4/2 5/5/2 3/2/2
f 8/6/3 1/7/3 7/8/3
f 8/9/4 4/4/4 2/1/4
f 1/3/5 5/10/5 7/11/5
f 10/1/1 11/2/1 9/3/1
f 12/4/2 13/5/2 11/2/2
f 16/6/3 9/7/3 15/8/3
f 16/9/4 12/4/4 10/1/4
f 9/3/5 13/10/5 15/11/5
f 18/1/1 19/2/1 17/3/1
f 20/4/2 21/5/2 19/2/2
f 22/12/6 23/8/6 21/5/6
f 24/6/3 17/7/3 23/8/3
f 24/9/4 20/4/4 18/1/4
f 17/3/5 21/10/5 23/11/5
f 26/1/1 27/2/1 25/3/1
f 28/4/2 29/5/2 27/2/2
f 30/12/6 31/8/6 29/5/6
f 32/6/3 25/7/3 31/8/3
f 32/9/4 28/4/4 26/1/4
f 25/3/5 29/10/5 31/11/5
f 34/1/1 35/2/1 33/3/1
f 36/4/2 37/5/2 35/2/2
f 38/12/6 39/8/6 37/5/6
f 40/6/3 33/7/3 39/8/3
f 40/9/4 36/4/4 34/1/4
f 33/3/5 37/10/5 39/11/5
f 42/1/1 43/2/1 41/3/1
f 44/4/2 45/5/2 43/2/2
f 48/6/3 41/7/3 47/8/3
f 48/9/4 44/4/4 42/1/4
f 41/3/5 45/10/5 47/11/5
f 50/1/1 51/2/1 49/3/1
f 52/4/2 53/5/2 51/2/2
f 56/6/3 49/7/3 55/8/3
f 56/9/4 52/4/4 50/1/4
f 49/3/5 53/10/5 55/11/5
f 69/13/7 72/2/7 70/14/7
f 66/13/19 60/4/19 71/4/19
f 59/2/20 71/4/20 60/4/20
f 72/2/21 65/14/21 70/14/21
f 66/13/22 71/4/22 69/13/22
f 59/2/23 65/14/23 72/2/23
f 150/12/6 152/8/6 149/5/6
f 154/1/1 155/2/1 153/3/1
f 156/4/2 157/5/2 155/2/2
f 158/12/6 159/8/6 157/5/6
f 160/6/3 153/7/3 159/8/3
f 160/9/4 156/4/4 154/1/4
f 153/3/5 157/10/5 159/11/5
f 2/1/1 4/4/1 3/2/1
f 4/4/2 6/12/2 5/5/2
f 8/6/3 2/25/3 1/7/3
f 8/9/4 6/36/4 4/4/4
f 1/3/5 3/2/5 5/10/5
f 10/1/1 12/4/1 11/2/1
f 12/4/2 14/12/2 13/5/2
f 16/6/3 10/25/3 9/7/3
f 16/9/4 14/36/4 12/4/4
f 9/3/5 11/2/5 13/10/5
f 18/1/1 20/4/1 19/2/1
f 20/4/2 22/12/2 21/5/2
f 22/12/6 24/6/6 23/8/6
f 24/6/3 18/25/3 17/7/3
f 24/9/4 22/36/4 20/4/4
f 17/3/5 19/2/5 21/10/5
f 26/1/1 28/4/1 27/2/1
f 28/4/2 30/12/2 29/5/2
f 30/12/6 32/6/6 31/8/6
f 32/6/3 26/25/3 25/7/3
f 32/9/4 30/36/4 28/4/4
f 25/3/5 27/2/5 29/10/5
f 34/1/1 36/4/1 35/2/1
f 36/4/2 38/12/2 37/5/2
f 38/12/6 40/6/6 39/8/6
f 40/6/3 34/25/3 33/7/3
f 40/9/4 38/36/4 36/4/4
f 33/3/5 35/2/5 37/10/5
f 42/1/1 44/4/1 43/2/1
f 44/4/2 46/12/2 45/5/2
f 48/6/3 42/25/3 41/7/3
f 48/9/4 46/36/4 44/4/4
f 41/3/5 43/2/5 45/10/5
f 50/1/1 52/4/1 51/2/1
f 52/4/2 54/12/2 53/5/2
f 56/6/3 50/25/3 49/7/3
f 56/9/4 54/36/4 52/4/4
f 49/3/5 51/2/5 53/10/5
f 69/13/7 71/4/7 72/2/7
f 59/2/20 72/2/20 71/4/20
f 150/12/6 151/6/6 152/8/6
f 154/1/1 156/4/1 155/2/1
f 156/4/2 158/12/2 157/5/2
f 158/12/6 160/6/6 159/8/6
f 160/6/3 154/25/3 153/7/3
f 160/9/4 158/36/4 156/4/4
f 153/3/5 155/2/5 157/10/5
usemtl lambert3SG
f 60/4/8 61/5/8 59/2/8
f 66/13/10 62/15/10 60/4/10
f 61/16/11 65/14/11 59/2/11
f 79/8/6 78/12/6 77/5/6
f 88/7/3 86/6/3 85/8/3
s 1
f 168/19/5 80/9/5 167/20/5
f 168/22/25 83/12/25 78/12/25
s 0
f 83/12/26 77/5/26 78/12/26
f 79/8/28 86/6/28 80/6/28
s 1
f 86/6/29 167/24/29 80/6/29
s 0
f 110/12/6 111/8/6 109/5/6
s 1
f 118/6/3 161/27/3 117/8/3
f 111/11/5 163/29/5 109/10/5
f 109/5/26 115/12/26 110/12/26
f 109/5/39 163/31/39 164/5/39
s 0
f 111/8/28 118/6/28 117/8/28
s 1
f 162/33/41 117/8/41 161/27/41
f 165/32/40 118/6/40 112/6/40
f 166/35/4 112/9/4 110/36/4
f 115/12/38 166/30/38 110/12/38
f 169/26/31 85/8/31 79/8/31
f 79/11/4 170/37/4 169/21/4
f 77/5/27 84/5/27 170/23/27
s 0
f 60/4/8 62/12/8 61/5/8
f 79/8/6 80/6/6 78/12/6
f 88/7/3 87/25/3 86/6/3
s 1
f 168/19/5 78/36/5 80/9/5
s 0
f 83/12/26 84/5/26 77/5/26
f 79/8/28 85/8/28 86/6/28
s 1
f 86/6/29 87/25/29 167/24/29
s 0
f 110/12/6 112/6/6 111/8/6
s 1
f 118/6/3 119/25/3 161/27/3
f 111/11/5 162/34/5 163/29/5
f 109/5/26 164/5/26 115/12/26
s 0
f 111/8/28 112/6/28 118/6/28
s 1
f 162/33/41 111/8/41 117/8/41
f 165/32/40 119/25/40 118/6/40
f 166/35/4 165/28/4 112/9/4
f 169/26/31 88/7/31 85/8/31
f 79/11/4 77/10/4 170/37/4
s 0
usemtl lambert2SG
f 64/6/9 57/7/9 63/8/9
f 62/17/12 63/8/12 61/18/12
f 63/11/13 65/14/13 61/16/13
f 68/1/14 70/14/14 67/3/14
f 64/9/15 66/13/15 58/1/15
f 58/1/16 67/3/16 57/3/16
f 58/1/17 69/13/17 68/1/17
f 57/3/18 70/14/18 65/14/18
f 75/2/1 74/1/1 73/3/1
f 84/5/2 82/4/2 81/2/2
s 1
f 169/21/4 75/2/4 73/3/4
s 0
f 75/2/24 82/4/24 76/4/24
s 1
f 170/23/27 81/2/27 75/2/27
s 0
f 87/25/30 73/7/30 74/25/30
s 1
f 73/7/31 88/7/31 169/26/31
s 0
f 91/2/32 90/1/32 89/3/32
f 91/2/33 94/12/33 92/4/33
f 93/5/34 96/6/34 94/12/34
f 89/7/35 96/6/35 95/8/35
f 97/3/32 100/4/32 98/1/32
f 99/2/36 102/12/36 100/4/36
f 103/8/34 102/12/34 101/5/34
f 97/7/37 104/6/37 103/8/37
f 106/1/1 107/2/1 105/3/1
f 114/4/2 116/5/2 113/2/2
s 1
f 165/28/4 108/4/4 106/1/4
s 0
f 107/2/24 114/4/24 113/2/24
s 1
f 166/30/38 114/4/38 108/4/38
f 119/25/40 165/32/40 106/25/40
s 0
f 105/7/30 119/25/30 106/25/30
f 122/1/42 123/2/42 121/3/42
f 123/2/43 126/12/43 125/5/43
f 125/5/44 128/6/44 127/8/44
f 128/6/45 121/7/45 127/8/45
f 129/3/42 132/4/42 131/2/42
f 131/2/46 134/12/46 133/5/46
f 134/12/44 135/8/44 133/5/44
f 136/6/47 129/7/47 135/8/47
f 138/1/1 139/2/1 137/3/1
f 140/4/48 141/5/48 139/2/48
f 144/6/49 137/7/49 143/8/49
f 144/9/50 140/4/50 138/1/50
f 137/3/51 141/10/51 143/11/51
s 1
f 142/12/6 145/5/6 141/5/6
f 144/6/6 146/12/6 142/12/6
f 143/8/6 147/6/6 144/6/6
f 143/8/6 145/5/6 148/8/6
s 0
f 145/5/52 150/12/52 149/5/52
f 146/12/53 151/6/53 150/12/53
f 148/8/54 151/6/54 147/6/54
f 145/5/55 152/8/55 148/8/55
s 1
f 161/27/3 119/25/3 120/7/3
f 162/33/41 120/7/41 105/7/41
f 162/34/5 107/2/5 163/29/5
f 163/31/39 113/2/39 116/5/39
f 115/12/26 164/5/26 116/5/26
f 167/24/29 87/25/29 74/25/29
f 76/4/5 167/20/5 74/1/5
f 82/4/25 168/22/25 76/4/25
s 0
f 64/6/9 58/25/9 57/7/9
f 62/17/12 64/6/12 63/8/12
f 63/11/56 57/3/56 65/14/56
f 68/1/14 69/13/14 70/14/14
f 64/9/57 62/15/57 66/13/57
f 58/1/16 68/1/16 67/3/16
f 58/1/58 66/13/58 69/13/58
f 57/3/59 67/3/59 70/14/59
f 75/2/1 76/4/1 74/1/1
f 84/5/2 83/12/2 82/4/2
s 1
f 169/21/4 170/37/4 75/2/4
s 0
f 75/2/24 81/2/24 82/4/24
s 1
f 170/23/27 84/5/27 81/2/27
s 0
f 87/25/30 88/7/30 73/7/30
f 91/2/32 92/4/32 90/1/32
f 91/2/60 93/5/60 94/12/60
f 93/5/34 95/8/34 96/6/34
f 89/7/61 90/25/61 96/6/61
f 97/3/32 99/2/32 100/4/32
f 99/2/62 101/5/62 102/12/62
f 103/8/34 104/6/34 102/12/34
f 97/7/63 98/25/63 104/6/63
f 106/1/1 108/4/1 107/2/1
f 114/4/2 115/12/2 116/5/2
s 1
f 165/28/4 166/35/4 108/4/4
s 0
f 107/2/24 108/4/24 114/4/24
s 1
f 166/30/38 115/12/38 114/4/38
s 0
f 105/7/30 120/7/30 119/25/30
f 122/1/42 124/4/42 123/2/42
f 123/2/64 124/4/64 126/12/64
f 125/5/44 126/12/44 128/6/44
f 128/6/65 122/25/65 121/7/65
f 129/3/42 130/1/42 132/4/42
f 131/2/66 132/4/66 134/12/66
f 134/12/44 136/6/44 135/8/44
f 136/6/67 130/25/67 129/7/67
f 138/1/1 140/4/1 139/2/1
f 140/4/48 142/12/48 141/5/48
f 144/6/49 138/25/49 137/7/49
f 144/9/50 142/36/50 140/4/50
f 137/3/51 139/2/51 141/10/51
s 1
f 142/12/6 146/12/6 145/5/6
f 144/6/6 147/6/6 146/12/6
f 143/8/6 148/8/6 147/6/6
f 143/8/6 141/5/6 145/5/6
s 0
f 145/5/52 146/12/52 150/12/52
f 146/12/53 147/6/53 151/6/53
f 148/8/54 152/8/54 151/6/54
f 145/5/55 149/5/55 152/8/55
s 1
f 162/33/41 161/27/41 120/7/41
f 162/34/5 105/3/5 107/2/5
f 116/5/39 164/5/39 163/31/39
f 163/31/39 107/2/39 113/2/39
f 76/4/5 168/19/5 167/20/5
f 82/4/25 83/12/25 168/22/25
