# Blender 3.6.1
# www.blender.org
mtllib steve2.mtl
o Steve
v -12.191999 -12.191999 6.096002
v 12.191999 -12.191999 6.096002
v -12.191999 -12.191999 -6.095998
v 12.191999 -12.191999 -6.095998
v -12.191999 24.383999 6.095996
v 12.191999 24.383999 6.095996
v -12.191999 24.383999 -6.096004
v 12.191999 24.383999 -6.096004
v -12.191999 24.383999 12.191996
v 12.191999 24.383999 12.191996
v -12.191999 24.383999 -12.192003
v 12.191999 24.383999 -12.192003
v -12.191999 48.767998 12.191992
v 12.191999 48.767998 12.191992
v -12.191999 48.767998 -12.192007
v 12.191999 48.767998 -12.192007
v 12.191999 -12.191999 6.096002
v 24.383999 -12.191999 6.096002
v 12.191999 -12.191999 -6.095998
v 24.383999 -12.191999 -6.095998
v 12.191999 24.383999 6.095996
v 24.383999 24.383999 6.095996
v 12.191999 24.383999 -6.096004
v 24.383999 24.383999 -6.096004
v -24.383999 -12.191999 6.096002
v -12.191999 -12.191999 6.096002
v -24.383999 -12.191999 -6.095998
v -12.191999 -12.191999 -6.095998
v -24.383999 24.383999 6.095996
v -12.191999 24.383999 6.095996
v -24.383999 24.383999 -6.096004
v -12.191999 24.383999 -6.096004
v 0.000000 -48.767998 6.096008
v 12.191999 -48.767998 6.096008
v 0.000000 -48.767998 -6.095992
v 12.191999 -48.767998 -6.095992
v 0.000000 -12.191999 6.096002
v 12.191999 -12.191999 6.096002
v 0.000000 -12.191999 -6.095998
v 12.191999 -12.191999 -6.095998
v -12.191999 -48.767998 6.096008
v 0.000000 -48.767998 6.096008
v -12.191999 -48.767998 -6.095992
v 0.000000 -48.767998 -6.095992
v -12.191999 -12.191999 6.096002
v 0.000000 -12.191999 6.096002
v -12.191999 -12.191999 -6.095998
v 0.000000 -12.191999 -6.095998
vn -0.0000 -1.0000 -0.0000
vn -0.0000 1.0000 -0.0000
vn -0.0000 -0.0000 1.0000
vn 1.0000 -0.0000 -0.0000
vn -0.0000 -0.0000 -1.0000
vn -1.0000 -0.0000 -0.0000
vt 0.437500 0.750000
vt 0.562375 0.687500
vt 0.437500 0.687500
vt 0.312500 0.750000
vt 0.312500 0.687500
vt 0.437500 0.505523
vt 0.312476 0.506001
vt 0.500000 0.500000
vt 0.437500 0.500000
vt 0.625000 0.506767
vt 0.500000 0.687500
vt 0.500000 0.506767
vt 0.312500 0.500000
vt 0.250000 0.687500
vt 0.250000 0.500000
vt 0.375000 1.000000
vt 0.250000 0.875000
vt 0.250000 1.000000
vt 0.125886 0.999679
vt 0.125935 0.875107
vt 0.250019 0.754708
vt 0.125000 0.875000
vt 0.125305 0.755324
vt 0.375000 0.753899
vt 0.250000 0.754286
vt 0.500000 0.750000
vt 0.375000 0.869156
vt 0.375000 0.750000
vt 0.125000 0.755010
vt 0.000000 0.875000
vt 0.000154 0.755471
vt 0.625000 0.250000
vt 0.687500 0.187500
vt 0.625000 0.187500
vt 0.562500 0.250000
vt 0.562500 0.187500
vt 0.625308 0.002924
vt 0.562423 0.003114
vt 0.687500 0.000000
vt 0.625000 0.000000
vt 0.750000 0.000000
vt 0.562500 0.000000
vt 0.500000 0.187500
vt 0.500000 0.000000
vt 0.750000 0.750000
vt 0.812500 0.687500
vt 0.750000 0.687500
vt 0.688081 0.750000
vt 0.688275 0.687306
vt 0.750122 0.505830
vt 0.687500 0.687500
vt 0.687500 0.505889
vt 0.812500 0.500000
vt 0.750000 0.500000
vt 0.875000 0.500000
vt 0.687500 0.506588
vt 0.625000 0.687500
vt 0.625000 0.506588
vt 0.375000 0.250000
vt 0.437500 0.187500
vt 0.375000 0.187500
vt 0.312500 0.250000
vt 0.312500 0.187500
vt 0.375000 0.000000
vt 0.312500 0.000000
vt 0.437500 0.000000
vt 0.250000 0.187500
vt 0.250000 0.000000
vt 0.125000 0.750000
vt 0.187500 0.687500
vt 0.125000 0.687500
vt 0.062500 0.750000
vt 0.062500 0.687500
vt 0.125000 0.501558
vt 0.062500 0.502240
vt 0.187500 0.500000
vt 0.125000 0.500000
vt 0.062500 0.500000
vt 0.000000 0.687500
vt 0.000000 0.500000
vt 0.562500 0.750000
vt 0.625000 0.507075
vt 0.374385 1.000000
vt 0.374077 0.875000
vt 0.249231 0.875154
vt 0.249231 0.999077
vt 0.125038 0.999692
vt 0.250000 0.756428
vt 0.374806 0.753410
vt 0.375000 0.875000
vt 0.499692 0.750000
vt 0.499692 0.869771
vt 0.375000 0.869771
vt 0.687500 0.250000
vt 0.625000 0.249225
vt 0.562500 0.249419
vt 0.750000 0.187500
vt 0.812500 0.750000
vt 0.687500 0.750000
vt 0.874385 0.500000
vt 0.874612 0.686919
vt 0.812500 0.686919
vt 0.687500 0.508526
vt 0.375000 0.249769
vt 0.437346 0.249846
vt 0.437346 0.187500
vt 0.500000 0.187039
vt 0.437500 0.187192
vt 0.125000 0.749512
vt 0.187256 0.749268
vt 0.187012 0.687500
vt 0.250000 0.687134
vt 0.187500 0.687256
s 1
usemtl 02_-_Default
f 3/1/1 2/2/1 1/3/1
f 6/3/2 7/4/2 5/5/2
f 2/6/3 5/5/3 1/7/3
f 4/8/4 6/3/4 2/9/4
f 3/10/5 8/11/5 4/12/5
f 1/13/6 7/14/6 3/15/6
f 11/16/1 10/17/1 9/18/1
f 14/17/2 15/19/2 13/20/2
f 10/21/3 13/22/3 9/23/3
f 12/24/4 14/17/4 10/25/4
f 11/26/5 16/27/5 12/28/5
f 9/29/6 15/30/6 11/31/6
f 19/32/1 18/33/1 17/34/1
f 22/34/2 23/35/2 21/36/2
f 18/37/3 21/36/3 17/38/3
f 20/39/4 22/34/4 18/40/4
f 19/41/5 24/33/5 20/39/5
f 17/42/6 23/43/6 19/44/6
f 27/45/1 26/46/1 25/47/1
f 30/47/2 31/48/2 29/49/2
f 26/50/3 29/51/3 25/52/3
f 28/53/4 30/47/4 26/54/4
f 27/55/5 32/46/5 28/53/5
f 25/56/6 31/57/6 27/58/6
f 35/59/1 34/60/1 33/61/1
f 38/61/2 39/62/2 37/63/2
f 34/64/3 37/63/3 33/65/3
f 36/66/4 38/61/4 34/64/4
f 35/44/5 40/60/5 36/66/5
f 33/65/6 39/67/6 35/68/6
f 43/69/1 42/70/1 41/71/1
f 46/71/2 47/72/2 45/73/2
f 42/74/3 45/73/3 41/75/3
f 44/76/4 46/71/4 42/77/4
f 43/15/5 48/70/5 44/76/5
f 41/78/6 47/79/6 43/80/6
f 3/1/1 4/81/1 2/2/1
f 6/3/2 8/1/2 7/4/2
f 2/9/3 6/3/3 5/5/3
f 4/8/4 8/11/4 6/3/4
f 3/82/5 7/57/5 8/11/5
f 1/13/6 5/5/6 7/14/6
f 11/83/1 12/84/1 10/17/1
f 14/85/2 16/86/2 15/87/2
f 10/88/3 14/17/3 13/22/3
f 12/89/4 16/90/4 14/17/4
f 11/91/5 15/92/5 16/93/5
f 9/69/6 13/22/6 15/30/6
f 19/32/1 20/94/1 18/33/1
f 22/34/2 24/95/2 23/96/2
f 18/40/3 22/34/3 21/36/3
f 20/39/4 24/33/4 22/34/4
f 19/41/5 23/97/5 24/33/5
f 17/42/6 21/36/6 23/43/6
f 27/45/1 28/98/1 26/46/1
f 30/47/2 32/45/2 31/99/2
f 26/54/3 30/47/3 29/51/3
f 28/53/4 32/46/4 30/47/4
f 27/100/5 31/101/5 32/102/5
f 25/103/6 29/51/6 31/57/6
f 35/104/1 36/105/1 34/106/1
f 38/61/2 40/59/2 39/62/2
f 34/64/3 38/61/3 37/63/3
f 36/66/4 40/60/4 38/61/4
f 35/44/5 39/107/5 40/108/5
f 33/65/6 37/63/6 39/67/6
f 43/109/1 44/110/1 42/111/1
f 46/71/2 48/69/2 47/72/2
f 42/77/3 46/71/3 45/73/3
f 44/76/4 48/70/4 46/71/4
f 43/15/5 47/112/5 48/113/5
f 41/78/6 45/73/6 47/79/6
