# Blender 3.6.1
# www.blender.org
mtllib torus3.mtl
o Torus
v 53.549999 0.000000 0.000000
v 40.732265 17.642099 -0.000001
v 19.992735 10.903410 -0.000001
v 19.992735 -10.903410 0.000001
v 40.732265 -17.642099 0.000001
v 43.322857 -0.000002 -31.475885
v 32.953094 17.642097 -23.941822
v 16.174480 10.903409 -11.751426
v 16.174480 -10.903411 -11.751424
v 32.953094 -17.642101 -23.941818
v 16.547859 -0.000004 -50.929062
v 12.586980 17.642096 -38.738701
v 6.178095 10.903408 -19.014238
v 6.178095 -10.903412 -19.014238
v 12.586980 -17.642103 -38.738701
v -16.547859 -0.000004 -50.929062
v -12.586980 17.642096 -38.738701
v -6.178095 10.903408 -19.014238
v -6.178095 -10.903412 -19.014238
v -12.586980 -17.642103 -38.738701
v -43.322857 -0.000002 -31.475885
v -32.953094 17.642097 -23.941822
v -16.174480 10.903409 -11.751426
v -16.174480 -10.903411 -11.751424
v -32.953094 -17.642101 -23.941818
v -53.549999 0.000000 0.000000
v -40.732265 17.642099 -0.000001
v -19.992735 10.903410 -0.000001
v -19.992735 -10.903410 0.000001
v -40.732265 -17.642099 0.000001
v -43.322857 0.000002 31.475885
v -32.953094 17.642101 23.941818
v -16.174480 10.903411 11.751424
v -16.174480 -10.903409 11.751426
v -32.953094 -17.642097 23.941822
v -16.547859 0.000004 50.929062
v -12.586980 17.642103 38.738701
v -6.178095 10.903412 19.014238
v -6.178095 -10.903408 19.014238
v -12.586980 -17.642096 38.738701
v 16.547859 0.000004 50.929062
v 12.586980 17.642103 38.738701
v 6.178095 10.903412 19.014238
v 6.178095 -10.903408 19.014238
v 12.586980 -17.642096 38.738701
v 43.322826 0.000002 31.475922
v 32.953094 17.642101 23.941853
v 16.174480 10.903411 11.751459
v 16.174480 -10.903409 11.751461
v 32.953094 -17.642097 23.941856
vn 0.7824 0.5685 -0.2542
vn -0.3075 0.9463 0.0999
vn -0.9511 -0.0000 0.3090
vn -0.3075 -0.9463 0.0999
vn 0.7824 -0.5685 -0.2542
vn 0.4836 0.5685 -0.6656
vn -0.1900 0.9463 0.2616
vn -0.5878 -0.0000 0.8090
vn -0.1900 -0.9463 0.2616
vn 0.4836 -0.5685 -0.6656
vn -0.0000 0.5685 -0.8227
vn -0.0000 0.9463 0.3233
vn -0.0000 -0.0000 1.0000
vn -0.0000 -0.9463 0.3233
vn -0.0000 -0.5685 -0.8227
vn -0.4836 0.5685 -0.6656
vn 0.1900 0.9463 0.2616
vn 0.5878 -0.0000 0.8090
vn 0.1900 -0.9463 0.2616
vn -0.4836 -0.5685 -0.6656
vn -0.7824 0.5685 -0.2542
vn 0.3075 0.9463 0.0999
vn 0.9511 -0.0000 0.3090
vn 0.3075 -0.9463 0.0999
vn -0.7824 -0.5685 -0.2542
vn -0.7824 0.5685 0.2542
vn 0.3075 0.9463 -0.0999
vn 0.9511 -0.0000 -0.3090
vn 0.3075 -0.9463 -0.0999
vn -0.7824 -0.5685 0.2542
vn -0.4836 0.5685 0.6656
vn 0.1900 0.9463 -0.2616
vn 0.5878 -0.0000 -0.8090
vn 0.1900 -0.9463 -0.2616
vn -0.4836 -0.5685 0.6656
vn -0.0000 0.5685 0.8227
vn -0.0000 0.9463 -0.3233
vn -0.0000 -0.0000 -1.0000
vn -0.0000 -0.9463 -0.3233
vn -0.0000 -0.5685 0.8227
vn 0.4836 0.5685 0.6656
vn -0.1900 0.9463 -0.2616
vn -0.5878 -0.0000 -0.8090
vn -0.1900 -0.9463 -0.2616
vn 0.4836 -0.5685 0.6656
vn 0.7824 0.5685 0.2542
vn -0.3075 0.9463 -0.0999
vn -0.9511 -0.0000 -0.3090
vn -0.3075 -0.9463 -0.0999
vn 0.7824 -0.5685 0.2542
vt 0.700000 0.600000
vt 0.600000 0.800000
vt 0.600000 0.600000
vt 0.700000 1.000000
vt 0.600000 1.000000
vt 0.700000 0.000000
vt 0.600000 0.200000
vt 0.600000 0.000000
vt 0.700000 0.200000
vt 0.600000 0.400000
vt 0.700000 0.400000
vt 0.800000 0.600000
vt 0.700000 0.800000
vt 0.800000 0.800000
vt 0.800000 0.000000
vt 0.800000 0.200000
vt 0.800000 0.400000
vt 0.900000 0.600000
vt 0.900000 0.800000
vt 0.800000 1.000000
vt 0.900000 0.000000
vt 0.900000 0.200000
vt 0.900000 0.400000
vt 1.000000 0.600000
vt 1.000000 0.800000
vt 0.900000 1.000000
vt 1.000000 0.000000
vt 1.000000 0.200000
vt 1.000000 0.400000
vt -0.000000 0.600000
vt 0.100000 0.800000
vt -0.000000 0.800000
vt -0.000000 1.000000
vt 0.100000 0.000000
vt -0.000000 0.200000
vt -0.000000 0.000000
vt 0.100000 0.200000
vt -0.000000 0.400000
vt 0.100000 0.400000
vt 0.100000 0.600000
vt 0.200000 0.800000
vt 0.100000 1.000000
vt 0.200000 0.000000
vt 0.200000 0.200000
vt 0.200000 0.400000
vt 0.300000 0.600000
vt 0.200000 0.600000
vt 0.300000 0.800000
vt 0.200000 1.000000
vt 0.300000 0.000000
vt 0.300000 0.200000
vt 0.300000 0.400000
vt 0.400000 0.600000
vt 0.400000 0.800000
vt 0.300000 1.000000
vt 0.400000 0.000000
vt 0.400000 0.200000
vt 0.400000 0.400000
vt 0.500000 0.800000
vt 0.400000 1.000000
vt 0.500000 0.000000
vt 0.500000 0.200000
vt 0.500000 0.400000
vt 0.500000 0.600000
vt 0.500000 1.000000
vt 1.000000 1.000000
s 0
usemtl None.001
f 6/1/1 2/2/1 1/3/1
f 2/2/2 8/4/2 3/5/2
f 8/6/3 4/7/3 3/8/3
f 9/9/4 5/10/4 4/7/4
f 10/11/5 1/3/5 5/10/5
f 11/12/6 7/13/6 6/1/6
f 12/14/7 8/4/7 7/13/7
f 13/15/8 9/9/8 8/6/8
f 14/16/9 10/11/9 9/9/9
f 15/17/10 6/1/10 10/11/10
f 16/18/11 12/14/11 11/12/11
f 17/19/12 13/20/12 12/14/12
f 18/21/13 14/16/13 13/15/13
f 19/22/14 15/17/14 14/16/14
f 20/23/15 11/12/15 15/17/15
f 21/24/16 17/19/16 16/18/16
f 22/25/17 18/26/17 17/19/17
f 23/27/18 19/22/18 18/21/18
f 24/28/19 20/23/19 19/22/19
f 25/29/20 16/18/20 20/23/20
f 21/30/21 27/31/21 22/32/21
f 27/31/22 23/33/22 22/32/22
f 28/34/23 24/35/23 23/36/23
f 29/37/24 25/38/24 24/35/24
f 30/39/25 21/30/25 25/38/25
f 26/40/26 32/41/26 27/31/26
f 32/41/27 28/42/27 27/31/27
f 33/43/28 29/37/28 28/34/28
f 34/44/29 30/39/29 29/37/29
f 35/45/30 26/40/30 30/39/30
f 36/46/31 32/41/31 31/47/31
f 37/48/32 33/49/32 32/41/32
f 38/50/33 34/44/33 33/43/33
f 39/51/34 35/45/34 34/44/34
f 40/52/35 31/47/35 35/45/35
f 41/53/36 37/48/36 36/46/36
f 42/54/37 38/55/37 37/48/37
f 43/56/38 39/51/38 38/50/38
f 44/57/39 40/52/39 39/51/39
f 45/58/40 36/46/40 40/52/40
f 41/53/41 47/59/41 42/54/41
f 47/59/42 43/60/42 42/54/42
f 48/61/43 44/57/43 43/56/43
f 49/62/44 45/58/44 44/57/44
f 50/63/45 41/53/45 45/58/45
f 1/3/46 47/59/46 46/64/46
f 2/2/47 48/65/47 47/59/47
f 3/8/48 49/62/48 48/61/48
f 4/7/49 50/63/49 49/62/49
f 5/10/50 46/64/50 50/63/50
f 6/1/1 7/13/1 2/2/1
f 2/2/2 7/13/2 8/4/2
f 8/6/3 9/9/3 4/7/3
f 9/9/4 10/11/4 5/10/4
f 10/11/5 6/1/5 1/3/5
f 11/12/6 12/14/6 7/13/6
f 12/14/7 13/20/7 8/4/7
f 13/15/8 14/16/8 9/9/8
f 14/16/9 15/17/9 10/11/9
f 15/17/10 11/12/10 6/1/10
f 16/18/11 17/19/11 12/14/11
f 17/19/12 18/26/12 13/20/12
f 18/21/13 19/22/13 14/16/13
f 19/22/14 20/23/14 15/17/14
f 20/23/15 16/18/15 11/12/15
f 21/24/16 22/25/16 17/19/16
f 22/25/17 23/66/17 18/26/17
f 23/27/18 24/28/18 19/22/18
f 24/28/19 25/29/19 20/23/19
f 25/29/20 21/24/20 16/18/20
f 21/30/21 26/40/21 27/31/21
f 27/31/22 28/42/22 23/33/22
f 28/34/23 29/37/23 24/35/23
f 29/37/24 30/39/24 25/38/24
f 30/39/25 26/40/25 21/30/25
f 26/40/26 31/47/26 32/41/26
f 32/41/27 33/49/27 28/42/27
f 33/43/28 34/44/28 29/37/28
f 34/44/29 35/45/29 30/39/29
f 35/45/30 31/47/30 26/40/30
f 36/46/31 37/48/31 32/41/31
f 37/48/32 38/55/32 33/49/32
f 38/50/33 39/51/33 34/44/33
f 39/51/34 40/52/34 35/45/34
f 40/52/35 36/46/35 31/47/35
f 41/53/36 42/54/36 37/48/36
f 42/54/37 43/60/37 38/55/37
f 43/56/38 44/57/38 39/51/38
f 44/57/39 45/58/39 40/52/39
f 45/58/40 41/53/40 36/46/40
f 41/53/41 46/64/41 47/59/41
f 47/59/42 48/65/42 43/60/42
f 48/61/43 49/62/43 44/57/43
f 49/62/44 50/63/44 45/58/44
f 50/63/45 46/64/45 41/53/45
f 1/3/46 2/2/46 47/59/46
f 2/2/47 3/5/47 48/65/47
f 3/8/48 4/7/48 49/62/48
f 4/7/49 5/10/49 50/63/49
f 5/10/50 1/3/50 46/64/50
